<mxfile host="65bd71144e">
    <diagram id="OOGeuDpNiOZ6lB6-GOxb" name="Concept_1">
        <mxGraphModel dx="1971" dy="1094" grid="0" gridSize="10" guides="1" tooltips="1" connect="1" arrows="1" fold="1" page="0" pageScale="1" pageWidth="850" pageHeight="1100" background="light-dark(#FFFFFF,#FFFFFF)" math="0" shadow="1" adaptiveColors="auto">
            <root>
                <mxCell id="0"/>
                <mxCell id="1" parent="0"/>
                <mxCell id="32" value="&gt; The language of the datatypes are in SQL.&#xa;&gt; Both Volunteers and Admins can accept an Event/Task.&#xa;&gt; However, only Admins can create those Events/Tasks." style="text;align=left;verticalAlign=top;resizable=0;points=[];autosize=1;strokeColor=none;fillColor=none;fontColor=light-dark(#000000,#000000);shadow=0;" parent="1" vertex="1">
                    <mxGeometry x="-400" y="40" width="330" height="60" as="geometry"/>
                </mxCell>
                <mxCell id="60" value="VOLUNTEER" style="whiteSpace=wrap;fillColor=none;fontFamily=Calibri;fontColor=light-dark(#000000,#0038FF);fontSize=24;fontStyle=1;align=left;labelBorderColor=none;strokeColor=none;labelBackgroundColor=none;glass=0;shadow=0;" parent="1" vertex="1">
                    <mxGeometry x="-160" y="120" width="160" height="40" as="geometry"/>
                </mxCell>
                <mxCell id="63" value="VOLUNTEER_HIST" style="whiteSpace=wrap;fillColor=none;fontFamily=Calibri;fontColor=light-dark(#000000,#9300FF);fontSize=24;fontStyle=1;align=left;strokeColor=none;shadow=0;" parent="1" vertex="1">
                    <mxGeometry x="480" y="360" width="200" height="40" as="geometry"/>
                </mxCell>
                <mxCell id="64" value="EVENT" style="whiteSpace=wrap;fillColor=none;fontFamily=Calibri;fontColor=light-dark(#000000,#FF0000);fontSize=24;fontStyle=1;align=left;strokeColor=none;shadow=0;" parent="1" vertex="1">
                    <mxGeometry x="160" y="120" width="80" height="40" as="geometry"/>
                </mxCell>
                <mxCell id="65" value="TASK" style="whiteSpace=wrap;fillColor=none;fontFamily=Calibri;fontColor=light-dark(#000000,#FFC600);fontSize=24;fontStyle=1;align=left;strokeColor=none;shadow=0;" parent="1" vertex="1">
                    <mxGeometry x="400" y="120" width="80" height="40" as="geometry"/>
                </mxCell>
                <mxCell id="78" value="creates" style="edgeStyle=orthogonalEdgeStyle;exitX=1;exitY=0.5;exitDx=0;exitDy=0;entryX=0;entryY=0.5;entryDx=0;entryDy=0;strokeColor=light-dark(#000000,#0038FF);strokeWidth=5;fontFamily=Calibri;fontColor=light-dark(#000000,#0038FF);labelBackgroundColor=none;jumpStyle=arc;jumpSize=12;fontSize=15;shadow=0;" parent="1" source="60" target="64" edge="1">
                    <mxGeometry x="0.4167" y="-10" relative="1" as="geometry">
                        <mxPoint x="260" y="70" as="sourcePoint"/>
                        <mxPoint x="90" y="80" as="targetPoint"/>
                        <Array as="points">
                            <mxPoint x="130" y="140"/>
                            <mxPoint x="130" y="140"/>
                        </Array>
                        <mxPoint as="offset"/>
                    </mxGeometry>
                </mxCell>
                <mxCell id="83" value="has" style="edgeStyle=elbowEdgeStyle;exitX=1;exitY=0.5;exitDx=0;exitDy=0;entryX=0;entryY=0.5;entryDx=0;entryDy=0;strokeColor=light-dark(#000000,#FF0000);strokeWidth=5;fontFamily=Calibri;fontColor=light-dark(#000000,#FF0000);labelBackgroundColor=none;fontSize=15;shadow=0;" parent="1" source="64" target="65" edge="1">
                    <mxGeometry x="0.375" y="-10" relative="1" as="geometry">
                        <mxPoint x="280" y="240" as="sourcePoint"/>
                        <mxPoint x="560" y="190" as="targetPoint"/>
                        <Array as="points">
                            <mxPoint x="300" y="150"/>
                            <mxPoint x="340" y="-80"/>
                            <mxPoint x="300" y="40"/>
                        </Array>
                        <mxPoint as="offset"/>
                    </mxGeometry>
                </mxCell>
                <mxCell id="135" value="accepts" style="edgeStyle=orthogonalEdgeStyle;exitX=1;exitY=0.5;exitDx=0;exitDy=0;entryX=0;entryY=0.75;entryDx=0;entryDy=0;strokeColor=light-dark(#000000,#0038FF);strokeWidth=5;fontFamily=Calibri;fontColor=light-dark(#000000,#0038FF);flowAnimation=0;labelBackgroundColor=none;fontSize=15;jumpStyle=arc;jumpSize=12;shadow=0;" parent="1" source="60" target="142" edge="1">
                    <mxGeometry x="0.6735" y="-10" relative="1" as="geometry">
                        <mxPoint x="10" y="160" as="sourcePoint"/>
                        <mxPoint x="320" y="190" as="targetPoint"/>
                        <Array as="points">
                            <mxPoint x="20" y="140"/>
                            <mxPoint x="20" y="390"/>
                        </Array>
                        <mxPoint as="offset"/>
                    </mxGeometry>
                </mxCell>
                <mxCell id="141" value="&gt; Privileges include:&#xa;    - Volunteer:&#xa;        - Can accept Tasks&#xa;    - Admin:&#xa;        - Can accept Tasks.&#xa;        - Can create Events/Tasks." style="whiteSpace=wrap;fontColor=light-dark(#000000,#0038FF);labelBackgroundColor=none;fillColor=light-dark(#FFFFFF,#78A3FF);rounded=1;fontFamily=Calibri;align=left;verticalAlign=top;fontStyle=0;shadow=0;strokeColor=none;" parent="1" vertex="1">
                    <mxGeometry x="-160" y="160" width="160" height="120" as="geometry"/>
                </mxCell>
                <mxCell id="142" value="VOLUNTEER_TASK" style="whiteSpace=wrap;fillColor=none;fontFamily=Calibri;fontColor=light-dark(#3B6E00,#5DA800);fontSize=24;fontStyle=1;align=left;strokeColor=none;shadow=0;" parent="1" vertex="1">
                    <mxGeometry x="160" y="360" width="200" height="40" as="geometry"/>
                </mxCell>
                <mxCell id="143" value="If admin..." style="text;align=center;verticalAlign=middle;resizable=0;points=[];autosize=1;strokeColor=none;fillColor=none;fontColor=light-dark(#000000,#0038FF);fontStyle=2;fontSize=10;shadow=0;" parent="1" vertex="1">
                    <mxGeometry x="60" y="110" width="62" height="24" as="geometry"/>
                </mxCell>
                <mxCell id="144" value="ROLE_" style="whiteSpace=wrap;fillColor=none;fontFamily=Calibri;fontColor=light-dark(#000000,#FF66B3);fontSize=24;fontStyle=1;align=left;labelBorderColor=none;strokeColor=none;shadow=0;" parent="1" vertex="1">
                    <mxGeometry x="-400" y="120" width="80" height="40" as="geometry"/>
                </mxCell>
                <mxCell id="146" value="determines" style="edgeStyle=orthogonalEdgeStyle;exitX=1;exitY=0.5;exitDx=0;exitDy=0;entryX=0;entryY=0.5;entryDx=0;entryDy=0;strokeColor=light-dark(#000000,#FF66B3);strokeWidth=5;fontFamily=Calibri;fontColor=light-dark(#000000,#FF66B3);flowAnimation=0;labelBackgroundColor=none;fontSize=15;jumpStyle=arc;jumpSize=12;shadow=0;" parent="1" source="144" target="60" edge="1">
                    <mxGeometry x="-0.1111" y="-10" relative="1" as="geometry">
                        <mxPoint x="-210" y="70" as="sourcePoint"/>
                        <mxPoint x="-159.99999999999977" y="140" as="targetPoint"/>
                        <Array as="points"/>
                        <mxPoint as="offset"/>
                    </mxGeometry>
                </mxCell>
                <mxCell id="150" value="&gt; Lists out all possible roles in this organizarion.&#xa;&#xa;So far, the only roles are:&#xa;&gt; Volunteer (Default)&#xa;&gt; Administrator" style="whiteSpace=wrap;fontColor=light-dark(#000000,#FF66B3);labelBackgroundColor=none;fillColor=light-dark(#FFB0DB,#FFB0DB);rounded=1;fontFamily=Calibri;align=left;verticalAlign=top;fontStyle=0;shadow=0;strokeColor=none;swimlaneFillColor=light-dark(default, #f3b3d9);" parent="1" vertex="1">
                    <mxGeometry x="-400" y="160" width="160" height="120" as="geometry"/>
                </mxCell>
                <mxCell id="154" value="&gt; Links VOLUNTEER and TASK.&#xa;&gt; My current plan, in a database perspective, is that once the volunteer selects a certain task, the link between the volunteer and the event should be implied." style="whiteSpace=wrap;fontColor=light-dark(#000000,#6FA630);labelBackgroundColor=none;fillColor=light-dark(#C9FC98,#C9FC98);rounded=1;fontFamily=Calibri;align=left;verticalAlign=top;fontStyle=0;glass=0;shadow=0;strokeColor=none;" parent="1" vertex="1">
                    <mxGeometry x="160" y="400" width="160" height="120" as="geometry"/>
                </mxCell>
                <mxCell id="155" value="&gt; An extention of VOLUNTEER_TASK that includes the duration a VOLUNTEER has worked on a task (once completed)." style="whiteSpace=wrap;fontColor=light-dark(#000000,#8619F5);labelBackgroundColor=none;fillColor=light-dark(#B885F5,#B885F5);rounded=1;fontFamily=Calibri;align=left;verticalAlign=top;fontStyle=0;shadow=0;strokeColor=none;" parent="1" vertex="1">
                    <mxGeometry x="480" y="400" width="160" height="80" as="geometry"/>
                </mxCell>
                <mxCell id="157" value="&gt; Lists events created by the admin.&#xa;&gt; The link between VOLUNTEER and EVENT shoud only be applied via creations.&#xa;&gt; VOLUNTEER/Task linkage is handled via the VOLUNTEER_TASK table." style="whiteSpace=wrap;fontColor=light-dark(#000000,#FF0000);labelBackgroundColor=none;fillColor=light-dark(#FFFFFF,#FF9F9F);rounded=1;fontFamily=Calibri;align=left;verticalAlign=top;fontStyle=0;glass=0;shadow=0;strokeColor=none;" parent="1" vertex="1">
                    <mxGeometry x="160" y="160" width="160" height="120" as="geometry"/>
                </mxCell>
                <mxCell id="159" value="&gt; Links Events with a Task." style="whiteSpace=wrap;fontColor=light-dark(#000000,#F6C843);labelBackgroundColor=none;fillColor=light-dark(#FFFFFF,#F6E0A8);rounded=1;fontFamily=Calibri;align=left;verticalAlign=top;fontStyle=0;shadow=0;strokeColor=none;" parent="1" vertex="1">
                    <mxGeometry x="400" y="160" width="160" height="40" as="geometry"/>
                </mxCell>
                <mxCell id="165" value="ROLE_" style="shape=table;startSize=40;container=1;collapsible=0;childLayout=tableLayout;strokeColor=none;fontSize=25;rounded=1;fillColor=light-dark(#FFFFFF,#FF66B3);gradientColor=none;swimlaneFillColor=light-dark(#000000,#FFB0DB);fontColor=light-dark(#000000,#000000);fontFamily=Calibri;fontStyle=1" parent="1" vertex="1">
                    <mxGeometry x="-600" y="680" width="320" height="160" as="geometry"/>
                </mxCell>
                <mxCell id="166" value="" style="shape=tableRow;horizontal=0;startSize=0;swimlaneHead=0;swimlaneBody=0;strokeColor=inherit;top=0;left=0;bottom=0;right=0;collapsible=0;dropTarget=0;fillColor=none;points=[[0,0.5],[1,0.5]];portConstraint=eastwest;fontSize=16;fontFamily=Calibri;fontColor=light-dark(#000000,#000000);fontStyle=1" parent="165" vertex="1">
                    <mxGeometry y="40" width="320" height="40" as="geometry"/>
                </mxCell>
                <mxCell id="167" value="ID" style="shape=partialRectangle;html=1;whiteSpace=wrap;connectable=0;strokeColor=inherit;overflow=hidden;fillColor=none;top=0;left=0;bottom=0;right=0;pointerEvents=1;fontSize=16;fontFamily=Calibri;fontColor=light-dark(#000000,#000000);fontStyle=1" parent="166" vertex="1">
                    <mxGeometry width="80" height="40" as="geometry">
                        <mxRectangle width="80" height="40" as="alternateBounds"/>
                    </mxGeometry>
                </mxCell>
                <mxCell id="168" value="SERIAL" style="shape=partialRectangle;html=1;whiteSpace=wrap;connectable=0;strokeColor=inherit;overflow=hidden;fillColor=none;top=0;left=0;bottom=0;right=0;pointerEvents=1;fontSize=16;fontFamily=Calibri;fontColor=light-dark(#000000,#000000);fontStyle=3;align=left;" parent="166" vertex="1">
                    <mxGeometry x="80" width="80" height="40" as="geometry">
                        <mxRectangle width="80" height="40" as="alternateBounds"/>
                    </mxGeometry>
                </mxCell>
                <mxCell id="169" value="PK" style="shape=partialRectangle;html=1;whiteSpace=wrap;connectable=0;strokeColor=inherit;overflow=hidden;fillColor=none;top=0;left=0;bottom=0;right=0;pointerEvents=1;fontSize=16;fontFamily=Calibri;fontColor=light-dark(#000000,#006600);fontStyle=1;align=left;" parent="166" vertex="1">
                    <mxGeometry x="160" width="160" height="40" as="geometry">
                        <mxRectangle width="160" height="40" as="alternateBounds"/>
                    </mxGeometry>
                </mxCell>
                <mxCell id="170" value="" style="shape=tableRow;horizontal=0;startSize=0;swimlaneHead=0;swimlaneBody=0;strokeColor=inherit;top=0;left=0;bottom=0;right=0;collapsible=0;dropTarget=0;fillColor=none;points=[[0,0.5],[1,0.5]];portConstraint=eastwest;fontSize=16;fontFamily=Calibri;fontColor=light-dark(#000000,#000000);" parent="165" vertex="1">
                    <mxGeometry y="80" width="320" height="80" as="geometry"/>
                </mxCell>
                <mxCell id="171" value="Name" style="shape=partialRectangle;html=1;whiteSpace=wrap;connectable=0;strokeColor=inherit;overflow=hidden;fillColor=none;top=0;left=0;bottom=0;right=0;pointerEvents=1;fontSize=16;fontFamily=Calibri;fontColor=light-dark(#000000,#000000);" parent="170" vertex="1">
                    <mxGeometry width="80" height="80" as="geometry">
                        <mxRectangle width="80" height="80" as="alternateBounds"/>
                    </mxGeometry>
                </mxCell>
                <mxCell id="172" value="TEXT" style="shape=partialRectangle;html=1;whiteSpace=wrap;connectable=0;strokeColor=inherit;overflow=hidden;fillColor=none;top=0;left=0;bottom=0;right=0;pointerEvents=1;fontSize=16;fontFamily=Calibri;fontColor=light-dark(#000000,#000000);fontStyle=2;align=left;" parent="170" vertex="1">
                    <mxGeometry x="80" width="80" height="80" as="geometry">
                        <mxRectangle width="80" height="80" as="alternateBounds"/>
                    </mxGeometry>
                </mxCell>
                <mxCell id="173" value="&gt; Volunteer (Default)&#xa;&gt; Admin" style="shape=partialRectangle;whiteSpace=wrap;connectable=0;strokeColor=inherit;overflow=hidden;fillColor=none;top=0;left=0;bottom=0;right=0;pointerEvents=1;fontSize=16;fontFamily=Calibri;fontColor=light-dark(#000000,#006600);align=left;" parent="170" vertex="1">
                    <mxGeometry x="160" width="160" height="80" as="geometry">
                        <mxRectangle width="160" height="80" as="alternateBounds"/>
                    </mxGeometry>
                </mxCell>
                <mxCell id="239" style="edgeStyle=orthogonalEdgeStyle;html=1;exitX=1;exitY=0.5;exitDx=0;exitDy=0;entryX=0;entryY=0.5;entryDx=0;entryDy=0;strokeColor=light-dark(#000000,#FF66B3);strokeWidth=5;startArrow=ERmandOne;startFill=0;endArrow=ERzeroToMany;endFill=0;endSize=12;startSize=12;jumpStyle=arc;" parent="1" source="166" target="257" edge="1">
                    <mxGeometry relative="1" as="geometry">
                        <mxPoint x="-200" y="780" as="targetPoint"/>
                    </mxGeometry>
                </mxCell>
                <mxCell id="240" value="VOLUNTEER" style="shape=table;startSize=40;container=1;collapsible=0;childLayout=tableLayout;strokeColor=none;fontSize=25;rounded=1;fillColor=light-dark(#FFFFFF,#0038FF);gradientColor=none;swimlaneFillColor=light-dark(#000000,#78A3FF);fontColor=light-dark(#000000,#000000);fontFamily=Calibri;fontStyle=1" parent="1" vertex="1">
                    <mxGeometry x="-160" y="680" width="520" height="640.0000000000002" as="geometry"/>
                </mxCell>
                <mxCell id="241" value="" style="shape=tableRow;horizontal=0;startSize=0;swimlaneHead=0;swimlaneBody=0;strokeColor=inherit;top=0;left=0;bottom=0;right=0;collapsible=0;dropTarget=0;fillColor=none;points=[[0,0.5],[1,0.5]];portConstraint=eastwest;fontSize=16;fontFamily=Calibri;fontColor=light-dark(#000000,#000000);fontStyle=1" parent="240" vertex="1">
                    <mxGeometry y="40" width="520" height="40" as="geometry"/>
                </mxCell>
                <mxCell id="242" value="ID" style="shape=partialRectangle;html=1;whiteSpace=wrap;connectable=0;strokeColor=inherit;overflow=hidden;fillColor=none;top=0;left=0;bottom=0;right=0;pointerEvents=1;fontSize=16;fontFamily=Calibri;fontColor=light-dark(#000000,#000000);fontStyle=1" parent="241" vertex="1">
                    <mxGeometry width="120" height="40" as="geometry">
                        <mxRectangle width="120" height="40" as="alternateBounds"/>
                    </mxGeometry>
                </mxCell>
                <mxCell id="243" value="SERIAL" style="shape=partialRectangle;html=1;whiteSpace=wrap;connectable=0;strokeColor=inherit;overflow=hidden;fillColor=none;top=0;left=0;bottom=0;right=0;pointerEvents=1;fontSize=16;fontFamily=Calibri;fontColor=light-dark(#000000,#000000);fontStyle=3;align=left;" parent="241" vertex="1">
                    <mxGeometry x="120" width="200" height="40" as="geometry">
                        <mxRectangle width="200" height="40" as="alternateBounds"/>
                    </mxGeometry>
                </mxCell>
                <mxCell id="244" value="PK" style="shape=partialRectangle;html=1;whiteSpace=wrap;connectable=0;strokeColor=inherit;overflow=hidden;fillColor=none;top=0;left=0;bottom=0;right=0;pointerEvents=1;fontSize=16;fontFamily=Calibri;fontColor=light-dark(#000000,#006600);fontStyle=1;align=left;" parent="241" vertex="1">
                    <mxGeometry x="320" width="200" height="40" as="geometry">
                        <mxRectangle width="200" height="40" as="alternateBounds"/>
                    </mxGeometry>
                </mxCell>
                <mxCell id="257" style="shape=tableRow;horizontal=0;startSize=0;swimlaneHead=0;swimlaneBody=0;strokeColor=inherit;top=0;left=0;bottom=0;right=0;collapsible=0;dropTarget=0;fillColor=none;points=[[0,0.5],[1,0.5]];portConstraint=eastwest;fontSize=16;fontFamily=Calibri;fontColor=light-dark(#000000,#000000);" parent="240" vertex="1">
                    <mxGeometry y="80" width="520" height="40" as="geometry"/>
                </mxCell>
                <mxCell id="258" value="Role_ID" style="shape=partialRectangle;html=1;whiteSpace=wrap;connectable=0;strokeColor=inherit;overflow=hidden;fillColor=none;top=0;left=0;bottom=0;right=0;pointerEvents=1;fontSize=16;fontFamily=Calibri;fontColor=light-dark(#000000,#000000);" parent="257" vertex="1">
                    <mxGeometry width="120" height="40" as="geometry">
                        <mxRectangle width="120" height="40" as="alternateBounds"/>
                    </mxGeometry>
                </mxCell>
                <mxCell id="259" value="INT" style="shape=partialRectangle;html=1;whiteSpace=wrap;connectable=0;strokeColor=inherit;overflow=hidden;fillColor=none;top=0;left=0;bottom=0;right=0;pointerEvents=1;fontSize=16;fontFamily=Calibri;fontColor=light-dark(#000000,#000000);fontStyle=2;align=left;" parent="257" vertex="1">
                    <mxGeometry x="120" width="200" height="40" as="geometry">
                        <mxRectangle width="200" height="40" as="alternateBounds"/>
                    </mxGeometry>
                </mxCell>
                <mxCell id="260" value="FK: ROLE.ID" style="shape=partialRectangle;whiteSpace=wrap;connectable=0;strokeColor=inherit;overflow=hidden;fillColor=none;top=0;left=0;bottom=0;right=0;pointerEvents=1;fontSize=16;fontFamily=Calibri;fontColor=light-dark(#000000,#006600);align=left;" parent="257" vertex="1">
                    <mxGeometry x="320" width="200" height="40" as="geometry">
                        <mxRectangle width="200" height="40" as="alternateBounds"/>
                    </mxGeometry>
                </mxCell>
                <mxCell id="245" value="" style="shape=tableRow;horizontal=0;startSize=0;swimlaneHead=0;swimlaneBody=0;strokeColor=inherit;top=0;left=0;bottom=0;right=0;collapsible=0;dropTarget=0;fillColor=none;points=[[0,0.5],[1,0.5]];portConstraint=eastwest;fontSize=16;fontFamily=Calibri;fontColor=light-dark(#000000,#000000);" parent="240" vertex="1">
                    <mxGeometry y="120" width="520" height="40" as="geometry"/>
                </mxCell>
                <mxCell id="246" value="First_name" style="shape=partialRectangle;html=1;whiteSpace=wrap;connectable=0;strokeColor=inherit;overflow=hidden;fillColor=none;top=0;left=0;bottom=0;right=0;pointerEvents=1;fontSize=16;fontFamily=Calibri;fontColor=light-dark(#000000,#000000);" parent="245" vertex="1">
                    <mxGeometry width="120" height="40" as="geometry">
                        <mxRectangle width="120" height="40" as="alternateBounds"/>
                    </mxGeometry>
                </mxCell>
                <mxCell id="247" value="TEXT" style="shape=partialRectangle;html=1;whiteSpace=wrap;connectable=0;strokeColor=inherit;overflow=hidden;fillColor=none;top=0;left=0;bottom=0;right=0;pointerEvents=1;fontSize=16;fontFamily=Calibri;fontColor=light-dark(#000000,#000000);fontStyle=2;align=left;" parent="245" vertex="1">
                    <mxGeometry x="120" width="200" height="40" as="geometry">
                        <mxRectangle width="200" height="40" as="alternateBounds"/>
                    </mxGeometry>
                </mxCell>
                <mxCell id="248" value="&#39;John&#39;" style="shape=partialRectangle;whiteSpace=wrap;connectable=0;strokeColor=inherit;overflow=hidden;fillColor=none;top=0;left=0;bottom=0;right=0;pointerEvents=1;fontSize=16;fontFamily=Calibri;fontColor=light-dark(#000000,#006600);align=left;" parent="245" vertex="1">
                    <mxGeometry x="320" width="200" height="40" as="geometry">
                        <mxRectangle width="200" height="40" as="alternateBounds"/>
                    </mxGeometry>
                </mxCell>
                <mxCell id="249" style="shape=tableRow;horizontal=0;startSize=0;swimlaneHead=0;swimlaneBody=0;strokeColor=inherit;top=0;left=0;bottom=0;right=0;collapsible=0;dropTarget=0;fillColor=none;points=[[0,0.5],[1,0.5]];portConstraint=eastwest;fontSize=16;fontFamily=Calibri;fontColor=light-dark(#000000,#000000);" parent="240" vertex="1">
                    <mxGeometry y="160" width="520" height="40" as="geometry"/>
                </mxCell>
                <mxCell id="250" value="Last_name" style="shape=partialRectangle;html=1;whiteSpace=wrap;connectable=0;strokeColor=inherit;overflow=hidden;fillColor=none;top=0;left=0;bottom=0;right=0;pointerEvents=1;fontSize=16;fontFamily=Calibri;fontColor=light-dark(#000000,#000000);" parent="249" vertex="1">
                    <mxGeometry width="120" height="40" as="geometry">
                        <mxRectangle width="120" height="40" as="alternateBounds"/>
                    </mxGeometry>
                </mxCell>
                <mxCell id="251" value="TEXT" style="shape=partialRectangle;html=1;whiteSpace=wrap;connectable=0;strokeColor=inherit;overflow=hidden;fillColor=none;top=0;left=0;bottom=0;right=0;pointerEvents=1;fontSize=16;fontFamily=Calibri;fontColor=light-dark(#000000,#000000);fontStyle=2;align=left;" parent="249" vertex="1">
                    <mxGeometry x="120" width="200" height="40" as="geometry">
                        <mxRectangle width="200" height="40" as="alternateBounds"/>
                    </mxGeometry>
                </mxCell>
                <mxCell id="252" value="&#39;Doe&#39;" style="shape=partialRectangle;whiteSpace=wrap;connectable=0;strokeColor=inherit;overflow=hidden;fillColor=none;top=0;left=0;bottom=0;right=0;pointerEvents=1;fontSize=16;fontFamily=Calibri;fontColor=light-dark(#000000,#006600);align=left;" parent="249" vertex="1">
                    <mxGeometry x="320" width="200" height="40" as="geometry">
                        <mxRectangle width="200" height="40" as="alternateBounds"/>
                    </mxGeometry>
                </mxCell>
                <mxCell id="386" style="shape=tableRow;horizontal=0;startSize=0;swimlaneHead=0;swimlaneBody=0;strokeColor=inherit;top=0;left=0;bottom=0;right=0;collapsible=0;dropTarget=0;fillColor=none;points=[[0,0.5],[1,0.5]];portConstraint=eastwest;fontSize=16;fontFamily=Calibri;fontColor=light-dark(#000000,#000000);" parent="240" vertex="1">
                    <mxGeometry y="200" width="520" height="40" as="geometry"/>
                </mxCell>
                <mxCell id="387" value="Username" style="shape=partialRectangle;html=1;whiteSpace=wrap;connectable=0;strokeColor=inherit;overflow=hidden;fillColor=none;top=0;left=0;bottom=0;right=0;pointerEvents=1;fontSize=16;fontFamily=Calibri;fontColor=light-dark(#000000,#000000);" parent="386" vertex="1">
                    <mxGeometry width="120" height="40" as="geometry">
                        <mxRectangle width="120" height="40" as="alternateBounds"/>
                    </mxGeometry>
                </mxCell>
                <mxCell id="388" value="TEXT" style="shape=partialRectangle;html=1;whiteSpace=wrap;connectable=0;strokeColor=inherit;overflow=hidden;fillColor=none;top=0;left=0;bottom=0;right=0;pointerEvents=1;fontSize=16;fontFamily=Calibri;fontColor=light-dark(#000000,#000000);fontStyle=2;align=left;" parent="386" vertex="1">
                    <mxGeometry x="120" width="200" height="40" as="geometry">
                        <mxRectangle width="200" height="40" as="alternateBounds"/>
                    </mxGeometry>
                </mxCell>
                <mxCell id="389" value="&#39;DJhon_Udon&#39;" style="shape=partialRectangle;whiteSpace=wrap;connectable=0;strokeColor=inherit;overflow=hidden;fillColor=none;top=0;left=0;bottom=0;right=0;pointerEvents=1;fontSize=16;fontFamily=Calibri;fontColor=light-dark(#000000,#006600);align=left;" parent="386" vertex="1">
                    <mxGeometry x="320" width="200" height="40" as="geometry">
                        <mxRectangle width="200" height="40" as="alternateBounds"/>
                    </mxGeometry>
                </mxCell>
                <mxCell id="253" style="shape=tableRow;horizontal=0;startSize=0;swimlaneHead=0;swimlaneBody=0;strokeColor=inherit;top=0;left=0;bottom=0;right=0;collapsible=0;dropTarget=0;fillColor=none;points=[[0,0.5],[1,0.5]];portConstraint=eastwest;fontSize=16;fontFamily=Calibri;fontColor=light-dark(#000000,#000000);" parent="240" vertex="1">
                    <mxGeometry y="240" width="520" height="40" as="geometry"/>
                </mxCell>
                <mxCell id="254" value="Email" style="shape=partialRectangle;html=1;whiteSpace=wrap;connectable=0;strokeColor=inherit;overflow=hidden;fillColor=none;top=0;left=0;bottom=0;right=0;pointerEvents=1;fontSize=16;fontFamily=Calibri;fontColor=light-dark(#000000,#000000);" parent="253" vertex="1">
                    <mxGeometry width="120" height="40" as="geometry">
                        <mxRectangle width="120" height="40" as="alternateBounds"/>
                    </mxGeometry>
                </mxCell>
                <mxCell id="255" value="TEXT" style="shape=partialRectangle;html=1;whiteSpace=wrap;connectable=0;strokeColor=inherit;overflow=hidden;fillColor=none;top=0;left=0;bottom=0;right=0;pointerEvents=1;fontSize=16;fontFamily=Calibri;fontColor=light-dark(#000000,#000000);fontStyle=2;align=left;" parent="253" vertex="1">
                    <mxGeometry x="120" width="200" height="40" as="geometry">
                        <mxRectangle width="200" height="40" as="alternateBounds"/>
                    </mxGeometry>
                </mxCell>
                <mxCell id="256" value="&#39;sample@email.com&#39;" style="shape=partialRectangle;whiteSpace=wrap;connectable=0;strokeColor=inherit;overflow=hidden;fillColor=none;top=0;left=0;bottom=0;right=0;pointerEvents=1;fontSize=16;fontFamily=Calibri;fontColor=light-dark(#000000,#006600);align=left;" parent="253" vertex="1">
                    <mxGeometry x="320" width="200" height="40" as="geometry">
                        <mxRectangle width="200" height="40" as="alternateBounds"/>
                    </mxGeometry>
                </mxCell>
                <mxCell id="390" style="shape=tableRow;horizontal=0;startSize=0;swimlaneHead=0;swimlaneBody=0;strokeColor=inherit;top=0;left=0;bottom=0;right=0;collapsible=0;dropTarget=0;fillColor=none;points=[[0,0.5],[1,0.5]];portConstraint=eastwest;fontSize=16;fontFamily=Calibri;fontColor=light-dark(#000000,#000000);" parent="240" vertex="1">
                    <mxGeometry y="280" width="520" height="40" as="geometry"/>
                </mxCell>
                <mxCell id="391" value="Password" style="shape=partialRectangle;html=1;whiteSpace=wrap;connectable=0;strokeColor=inherit;overflow=hidden;fillColor=none;top=0;left=0;bottom=0;right=0;pointerEvents=1;fontSize=16;fontFamily=Calibri;fontColor=light-dark(#000000,#000000);" parent="390" vertex="1">
                    <mxGeometry width="120" height="40" as="geometry">
                        <mxRectangle width="120" height="40" as="alternateBounds"/>
                    </mxGeometry>
                </mxCell>
                <mxCell id="392" value="TEXT" style="shape=partialRectangle;html=1;whiteSpace=wrap;connectable=0;strokeColor=inherit;overflow=hidden;fillColor=none;top=0;left=0;bottom=0;right=0;pointerEvents=1;fontSize=16;fontFamily=Calibri;fontColor=light-dark(#000000,#000000);fontStyle=2;align=left;" parent="390" vertex="1">
                    <mxGeometry x="120" width="200" height="40" as="geometry">
                        <mxRectangle width="200" height="40" as="alternateBounds"/>
                    </mxGeometry>
                </mxCell>
                <mxCell id="393" value="crypt(&#39;plaintext_password&#39;, gen_salt(&#39;bf&#39;))" style="shape=partialRectangle;whiteSpace=wrap;connectable=0;strokeColor=inherit;overflow=hidden;fillColor=none;top=0;left=0;bottom=0;right=0;pointerEvents=1;fontSize=16;fontFamily=Calibri;fontColor=light-dark(#000000,#006600);align=left;" parent="390" vertex="1">
                    <mxGeometry x="320" width="200" height="40" as="geometry">
                        <mxRectangle width="200" height="40" as="alternateBounds"/>
                    </mxGeometry>
                </mxCell>
                <mxCell id="322" style="shape=tableRow;horizontal=0;startSize=0;swimlaneHead=0;swimlaneBody=0;strokeColor=inherit;top=0;left=0;bottom=0;right=0;collapsible=0;dropTarget=0;fillColor=none;points=[[0,0.5],[1,0.5]];portConstraint=eastwest;fontSize=16;fontFamily=Calibri;fontColor=light-dark(#000000,#000000);" parent="240" vertex="1">
                    <mxGeometry y="320" width="520" height="80" as="geometry"/>
                </mxCell>
                <mxCell id="323" value="Skill" style="shape=partialRectangle;html=1;whiteSpace=wrap;connectable=0;strokeColor=inherit;overflow=hidden;fillColor=none;top=0;left=0;bottom=0;right=0;pointerEvents=1;fontSize=16;fontFamily=Calibri;fontColor=light-dark(#000000,#000000);" parent="322" vertex="1">
                    <mxGeometry width="120" height="80" as="geometry">
                        <mxRectangle width="120" height="80" as="alternateBounds"/>
                    </mxGeometry>
                </mxCell>
                <mxCell id="324" value="TEXT[]" style="shape=partialRectangle;html=1;whiteSpace=wrap;connectable=0;strokeColor=inherit;overflow=hidden;fillColor=none;top=0;left=0;bottom=0;right=0;pointerEvents=1;fontSize=16;fontFamily=Calibri;fontColor=light-dark(#000000,#000000);fontStyle=2;align=left;" parent="322" vertex="1">
                    <mxGeometry x="120" width="200" height="80" as="geometry">
                        <mxRectangle width="200" height="80" as="alternateBounds"/>
                    </mxGeometry>
                </mxCell>
                <mxCell id="325" value="[&#39;Communication&#39;,&#39;Time management&#39;, ... ]" style="shape=partialRectangle;whiteSpace=wrap;connectable=0;strokeColor=inherit;overflow=hidden;fillColor=none;top=0;left=0;bottom=0;right=0;pointerEvents=1;fontSize=16;fontFamily=Calibri;fontColor=light-dark(#000000,#006600);align=left;" parent="322" vertex="1">
                    <mxGeometry x="320" width="200" height="80" as="geometry">
                        <mxRectangle width="200" height="80" as="alternateBounds"/>
                    </mxGeometry>
                </mxCell>
                <mxCell id="262" style="shape=tableRow;horizontal=0;startSize=0;swimlaneHead=0;swimlaneBody=0;strokeColor=inherit;top=0;left=0;bottom=0;right=0;collapsible=0;dropTarget=0;fillColor=none;points=[[0,0.5],[1,0.5]];portConstraint=eastwest;fontSize=16;fontFamily=Calibri;fontColor=light-dark(#000000,#000000);" parent="240" vertex="1">
                    <mxGeometry y="400" width="520" height="40" as="geometry"/>
                </mxCell>
                <mxCell id="263" value="Location" style="shape=partialRectangle;html=1;whiteSpace=wrap;connectable=0;strokeColor=inherit;overflow=hidden;fillColor=none;top=0;left=0;bottom=0;right=0;pointerEvents=1;fontSize=16;fontFamily=Calibri;fontColor=light-dark(#000000,#000000);" parent="262" vertex="1">
                    <mxGeometry width="120" height="40" as="geometry">
                        <mxRectangle width="120" height="40" as="alternateBounds"/>
                    </mxGeometry>
                </mxCell>
                <mxCell id="264" value="TEXT" style="shape=partialRectangle;html=1;whiteSpace=wrap;connectable=0;strokeColor=inherit;overflow=hidden;fillColor=none;top=0;left=0;bottom=0;right=0;pointerEvents=1;fontSize=16;fontFamily=Calibri;fontColor=light-dark(#000000,#000000);fontStyle=2;align=left;" parent="262" vertex="1">
                    <mxGeometry x="120" width="200" height="40" as="geometry">
                        <mxRectangle width="200" height="40" as="alternateBounds"/>
                    </mxGeometry>
                </mxCell>
                <mxCell id="265" value="&#39;12345 Street Nm, City, TX 54321&#39;" style="shape=partialRectangle;whiteSpace=wrap;connectable=0;strokeColor=inherit;overflow=hidden;fillColor=none;top=0;left=0;bottom=0;right=0;pointerEvents=1;fontSize=16;fontFamily=Calibri;fontColor=light-dark(#000000,#006600);align=left;" parent="262" vertex="1">
                    <mxGeometry x="320" width="200" height="40" as="geometry">
                        <mxRectangle width="200" height="40" as="alternateBounds"/>
                    </mxGeometry>
                </mxCell>
                <mxCell id="359" style="shape=tableRow;horizontal=0;startSize=0;swimlaneHead=0;swimlaneBody=0;strokeColor=inherit;top=0;left=0;bottom=0;right=0;collapsible=0;dropTarget=0;fillColor=none;points=[[0,0.5],[1,0.5]];portConstraint=eastwest;fontSize=16;fontFamily=Calibri;fontColor=light-dark(#000000,#000000);" parent="240" vertex="1">
                    <mxGeometry y="440" width="520" height="80" as="geometry"/>
                </mxCell>
                <mxCell id="360" value="Availability" style="shape=partialRectangle;html=1;whiteSpace=wrap;connectable=0;strokeColor=inherit;overflow=hidden;fillColor=none;top=0;left=0;bottom=0;right=0;pointerEvents=1;fontSize=16;fontFamily=Calibri;fontColor=light-dark(#000000,#000000);" parent="359" vertex="1">
                    <mxGeometry width="120" height="80" as="geometry">
                        <mxRectangle width="120" height="80" as="alternateBounds"/>
                    </mxGeometry>
                </mxCell>
                <mxCell id="361" value="TEXT[]" style="shape=partialRectangle;html=1;whiteSpace=wrap;connectable=0;strokeColor=inherit;overflow=hidden;fillColor=none;top=0;left=0;bottom=0;right=0;pointerEvents=1;fontSize=16;fontFamily=Calibri;fontColor=light-dark(#000000,#000000);fontStyle=2;align=left;" parent="359" vertex="1">
                    <mxGeometry x="120" width="200" height="80" as="geometry">
                        <mxRectangle width="200" height="80" as="alternateBounds"/>
                    </mxGeometry>
                </mxCell>
                <mxCell id="362" value="&gt; Actual days can be handled externally from the database.&#xa;[&#39;Monday&#39;,&#39;Friday&#39;,&#39;Saturday&#39;]" style="shape=partialRectangle;whiteSpace=wrap;connectable=0;strokeColor=inherit;overflow=hidden;fillColor=none;top=0;left=0;bottom=0;right=0;pointerEvents=1;fontSize=16;fontFamily=Calibri;fontColor=light-dark(#000000,#006600);align=left;" parent="359" vertex="1">
                    <mxGeometry x="320" width="200" height="80" as="geometry">
                        <mxRectangle width="200" height="80" as="alternateBounds"/>
                    </mxGeometry>
                </mxCell>
                <mxCell id="399" style="shape=tableRow;horizontal=0;startSize=0;swimlaneHead=0;swimlaneBody=0;strokeColor=inherit;top=0;left=0;bottom=0;right=0;collapsible=0;dropTarget=0;fillColor=none;points=[[0,0.5],[1,0.5]];portConstraint=eastwest;fontSize=16;fontFamily=Calibri;fontColor=light-dark(#000000,#000000);" parent="240" vertex="1">
                    <mxGeometry y="520" width="520" height="120" as="geometry"/>
                </mxCell>
                <mxCell id="400" value="Date_enrolled" style="shape=partialRectangle;html=1;whiteSpace=wrap;connectable=0;strokeColor=inherit;overflow=hidden;fillColor=none;top=0;left=0;bottom=0;right=0;pointerEvents=1;fontSize=16;fontFamily=Calibri;fontColor=light-dark(#000000,#000000);" parent="399" vertex="1">
                    <mxGeometry width="120" height="120" as="geometry">
                        <mxRectangle width="120" height="120" as="alternateBounds"/>
                    </mxGeometry>
                </mxCell>
                <mxCell id="401" value="DATE" style="shape=partialRectangle;html=1;whiteSpace=wrap;connectable=0;strokeColor=inherit;overflow=hidden;fillColor=none;top=0;left=0;bottom=0;right=0;pointerEvents=1;fontSize=16;fontFamily=Calibri;fontColor=light-dark(#000000,#000000);fontStyle=2;align=left;" parent="399" vertex="1">
                    <mxGeometry x="120" width="200" height="120" as="geometry">
                        <mxRectangle width="200" height="120" as="alternateBounds"/>
                    </mxGeometry>
                </mxCell>
                <mxCell id="402" value="&gt; Enrollment into the organization.&#xa;&gt; For server.js:&#xa;const dateEnrolled = &#xa;new Date().toISOString();" style="shape=partialRectangle;whiteSpace=wrap;connectable=0;strokeColor=inherit;overflow=hidden;fillColor=none;top=0;left=0;bottom=0;right=0;pointerEvents=1;fontSize=16;fontFamily=Calibri;fontColor=light-dark(#000000,#006600);align=left;" parent="399" vertex="1">
                    <mxGeometry x="320" width="200" height="120" as="geometry">
                        <mxRectangle width="200" height="120" as="alternateBounds"/>
                    </mxGeometry>
                </mxCell>
                <mxCell id="266" value="EVENT" style="shape=table;startSize=40;container=1;collapsible=0;childLayout=tableLayout;strokeColor=none;fontSize=25;rounded=1;fillColor=light-dark(#FFFFFF,#FF0000);gradientColor=none;swimlaneFillColor=light-dark(#000000,#FF9F9F);fontColor=light-dark(#000000,#000000);fontFamily=Calibri;fontStyle=1" parent="1" vertex="1">
                    <mxGeometry x="520" y="680" width="520" height="400" as="geometry"/>
                </mxCell>
                <mxCell id="267" value="" style="shape=tableRow;horizontal=0;startSize=0;swimlaneHead=0;swimlaneBody=0;strokeColor=inherit;top=0;left=0;bottom=0;right=0;collapsible=0;dropTarget=0;fillColor=none;points=[[0,0.5],[1,0.5]];portConstraint=eastwest;fontSize=16;fontFamily=Calibri;fontColor=light-dark(#000000,#000000);fontStyle=1" parent="266" vertex="1">
                    <mxGeometry y="40" width="520" height="40" as="geometry"/>
                </mxCell>
                <mxCell id="268" value="ID" style="shape=partialRectangle;html=1;whiteSpace=wrap;connectable=0;strokeColor=inherit;overflow=hidden;fillColor=none;top=0;left=0;bottom=0;right=0;pointerEvents=1;fontSize=16;fontFamily=Calibri;fontColor=light-dark(#000000,#000000);fontStyle=1" parent="267" vertex="1">
                    <mxGeometry width="120" height="40" as="geometry">
                        <mxRectangle width="120" height="40" as="alternateBounds"/>
                    </mxGeometry>
                </mxCell>
                <mxCell id="269" value="SERIAL" style="shape=partialRectangle;html=1;whiteSpace=wrap;connectable=0;strokeColor=inherit;overflow=hidden;fillColor=none;top=0;left=0;bottom=0;right=0;pointerEvents=1;fontSize=16;fontFamily=Calibri;fontColor=light-dark(#000000,#000000);fontStyle=3;align=left;" parent="267" vertex="1">
                    <mxGeometry x="120" width="200" height="40" as="geometry">
                        <mxRectangle width="200" height="40" as="alternateBounds"/>
                    </mxGeometry>
                </mxCell>
                <mxCell id="270" value="PK" style="shape=partialRectangle;html=1;whiteSpace=wrap;connectable=0;strokeColor=inherit;overflow=hidden;fillColor=none;top=0;left=0;bottom=0;right=0;pointerEvents=1;fontSize=16;fontFamily=Calibri;fontColor=light-dark(#000000,#006600);fontStyle=1;align=left;" parent="267" vertex="1">
                    <mxGeometry x="320" width="200" height="40" as="geometry">
                        <mxRectangle width="200" height="40" as="alternateBounds"/>
                    </mxGeometry>
                </mxCell>
                <mxCell id="271" value="" style="shape=tableRow;horizontal=0;startSize=0;swimlaneHead=0;swimlaneBody=0;strokeColor=inherit;top=0;left=0;bottom=0;right=0;collapsible=0;dropTarget=0;fillColor=none;points=[[0,0.5],[1,0.5]];portConstraint=eastwest;fontSize=16;fontFamily=Calibri;fontColor=light-dark(#000000,#000000);" parent="266" vertex="1">
                    <mxGeometry y="80" width="520" height="40" as="geometry"/>
                </mxCell>
                <mxCell id="272" value="Name" style="shape=partialRectangle;html=1;whiteSpace=wrap;connectable=0;strokeColor=inherit;overflow=hidden;fillColor=none;top=0;left=0;bottom=0;right=0;pointerEvents=1;fontSize=16;fontFamily=Calibri;fontColor=light-dark(#000000,#000000);" parent="271" vertex="1">
                    <mxGeometry width="120" height="40" as="geometry">
                        <mxRectangle width="120" height="40" as="alternateBounds"/>
                    </mxGeometry>
                </mxCell>
                <mxCell id="273" value="TEXT" style="shape=partialRectangle;html=1;whiteSpace=wrap;connectable=0;strokeColor=inherit;overflow=hidden;fillColor=none;top=0;left=0;bottom=0;right=0;pointerEvents=1;fontSize=16;fontFamily=Calibri;fontColor=light-dark(#000000,#000000);fontStyle=2;align=left;" parent="271" vertex="1">
                    <mxGeometry x="120" width="200" height="40" as="geometry">
                        <mxRectangle width="200" height="40" as="alternateBounds"/>
                    </mxGeometry>
                </mxCell>
                <mxCell id="274" value="&#39;Food Bank Colab&#39;" style="shape=partialRectangle;whiteSpace=wrap;connectable=0;strokeColor=inherit;overflow=hidden;fillColor=none;top=0;left=0;bottom=0;right=0;pointerEvents=1;fontSize=16;fontFamily=Calibri;fontColor=light-dark(#000000,#006600);align=left;" parent="271" vertex="1">
                    <mxGeometry x="320" width="200" height="40" as="geometry">
                        <mxRectangle width="200" height="40" as="alternateBounds"/>
                    </mxGeometry>
                </mxCell>
                <mxCell id="275" style="shape=tableRow;horizontal=0;startSize=0;swimlaneHead=0;swimlaneBody=0;strokeColor=inherit;top=0;left=0;bottom=0;right=0;collapsible=0;dropTarget=0;fillColor=none;points=[[0,0.5],[1,0.5]];portConstraint=eastwest;fontSize=16;fontFamily=Calibri;fontColor=light-dark(#000000,#000000);" parent="266" vertex="1">
                    <mxGeometry y="120" width="520" height="40" as="geometry"/>
                </mxCell>
                <mxCell id="276" value="Moderator" style="shape=partialRectangle;html=1;whiteSpace=wrap;connectable=0;strokeColor=inherit;overflow=hidden;fillColor=none;top=0;left=0;bottom=0;right=0;pointerEvents=1;fontSize=16;fontFamily=Calibri;fontColor=light-dark(#000000,#000000);" parent="275" vertex="1">
                    <mxGeometry width="120" height="40" as="geometry">
                        <mxRectangle width="120" height="40" as="alternateBounds"/>
                    </mxGeometry>
                </mxCell>
                <mxCell id="277" value="INT" style="shape=partialRectangle;html=1;whiteSpace=wrap;connectable=0;strokeColor=inherit;overflow=hidden;fillColor=none;top=0;left=0;bottom=0;right=0;pointerEvents=1;fontSize=16;fontFamily=Calibri;fontColor=light-dark(#000000,#000000);fontStyle=2;align=left;" parent="275" vertex="1">
                    <mxGeometry x="120" width="200" height="40" as="geometry">
                        <mxRectangle width="200" height="40" as="alternateBounds"/>
                    </mxGeometry>
                </mxCell>
                <mxCell id="278" value="FK: VOLUNTEER.ID" style="shape=partialRectangle;whiteSpace=wrap;connectable=0;strokeColor=inherit;overflow=hidden;fillColor=none;top=0;left=0;bottom=0;right=0;pointerEvents=1;fontSize=16;fontFamily=Calibri;fontColor=light-dark(#000000,#006600);align=left;" parent="275" vertex="1">
                    <mxGeometry x="320" width="200" height="40" as="geometry">
                        <mxRectangle width="200" height="40" as="alternateBounds"/>
                    </mxGeometry>
                </mxCell>
                <mxCell id="283" style="shape=tableRow;horizontal=0;startSize=0;swimlaneHead=0;swimlaneBody=0;strokeColor=inherit;top=0;left=0;bottom=0;right=0;collapsible=0;dropTarget=0;fillColor=none;points=[[0,0.5],[1,0.5]];portConstraint=eastwest;fontSize=16;fontFamily=Calibri;fontColor=light-dark(#000000,#000000);" parent="266" vertex="1">
                    <mxGeometry y="160" width="520" height="40" as="geometry"/>
                </mxCell>
                <mxCell id="284" value="Location" style="shape=partialRectangle;html=1;whiteSpace=wrap;connectable=0;strokeColor=inherit;overflow=hidden;fillColor=none;top=0;left=0;bottom=0;right=0;pointerEvents=1;fontSize=16;fontFamily=Calibri;fontColor=light-dark(#000000,#000000);" parent="283" vertex="1">
                    <mxGeometry width="120" height="40" as="geometry">
                        <mxRectangle width="120" height="40" as="alternateBounds"/>
                    </mxGeometry>
                </mxCell>
                <mxCell id="285" value="TEXT" style="shape=partialRectangle;html=1;whiteSpace=wrap;connectable=0;strokeColor=inherit;overflow=hidden;fillColor=none;top=0;left=0;bottom=0;right=0;pointerEvents=1;fontSize=16;fontFamily=Calibri;fontColor=light-dark(#000000,#000000);fontStyle=2;align=left;" parent="283" vertex="1">
                    <mxGeometry x="120" width="200" height="40" as="geometry">
                        <mxRectangle width="200" height="40" as="alternateBounds"/>
                    </mxGeometry>
                </mxCell>
                <mxCell id="286" value="&#39;12345 Street Nm, City, TX 54321&#39;" style="shape=partialRectangle;whiteSpace=wrap;connectable=0;strokeColor=inherit;overflow=hidden;fillColor=none;top=0;left=0;bottom=0;right=0;pointerEvents=1;fontSize=16;fontFamily=Calibri;fontColor=light-dark(#000000,#006600);align=left;" parent="283" vertex="1">
                    <mxGeometry x="320" width="200" height="40" as="geometry">
                        <mxRectangle width="200" height="40" as="alternateBounds"/>
                    </mxGeometry>
                </mxCell>
                <mxCell id="363" style="shape=tableRow;horizontal=0;startSize=0;swimlaneHead=0;swimlaneBody=0;strokeColor=inherit;top=0;left=0;bottom=0;right=0;collapsible=0;dropTarget=0;fillColor=none;points=[[0,0.5],[1,0.5]];portConstraint=eastwest;fontSize=16;fontFamily=Calibri;fontColor=light-dark(#000000,#000000);" parent="266" vertex="1">
                    <mxGeometry y="200" width="520" height="40" as="geometry"/>
                </mxCell>
                <mxCell id="364" value="Description" style="shape=partialRectangle;html=1;whiteSpace=wrap;connectable=0;strokeColor=inherit;overflow=hidden;fillColor=none;top=0;left=0;bottom=0;right=0;pointerEvents=1;fontSize=16;fontFamily=Calibri;fontColor=light-dark(#000000,#000000);" parent="363" vertex="1">
                    <mxGeometry width="120" height="40" as="geometry">
                        <mxRectangle width="120" height="40" as="alternateBounds"/>
                    </mxGeometry>
                </mxCell>
                <mxCell id="365" value="TEXT" style="shape=partialRectangle;html=1;whiteSpace=wrap;connectable=0;strokeColor=inherit;overflow=hidden;fillColor=none;top=0;left=0;bottom=0;right=0;pointerEvents=1;fontSize=16;fontFamily=Calibri;fontColor=light-dark(#000000,#000000);fontStyle=2;align=left;" parent="363" vertex="1">
                    <mxGeometry x="120" width="200" height="40" as="geometry">
                        <mxRectangle width="200" height="40" as="alternateBounds"/>
                    </mxGeometry>
                </mxCell>
                <mxCell id="366" value="&#39;...&#39;" style="shape=partialRectangle;whiteSpace=wrap;connectable=0;strokeColor=inherit;overflow=hidden;fillColor=none;top=0;left=0;bottom=0;right=0;pointerEvents=1;fontSize=16;fontFamily=Calibri;fontColor=light-dark(#000000,#006600);align=left;" parent="363" vertex="1">
                    <mxGeometry x="320" width="200" height="40" as="geometry">
                        <mxRectangle width="200" height="40" as="alternateBounds"/>
                    </mxGeometry>
                </mxCell>
                <mxCell id="403" style="shape=tableRow;horizontal=0;startSize=0;swimlaneHead=0;swimlaneBody=0;strokeColor=inherit;top=0;left=0;bottom=0;right=0;collapsible=0;dropTarget=0;fillColor=none;points=[[0,0.5],[1,0.5]];portConstraint=eastwest;fontSize=16;fontFamily=Calibri;fontColor=light-dark(#000000,#000000);" parent="266" vertex="1">
                    <mxGeometry y="240" width="520" height="40" as="geometry"/>
                </mxCell>
                <mxCell id="404" value="Priority" style="shape=partialRectangle;html=1;whiteSpace=wrap;connectable=0;strokeColor=inherit;overflow=hidden;fillColor=none;top=0;left=0;bottom=0;right=0;pointerEvents=1;fontSize=16;fontFamily=Calibri;fontColor=light-dark(#000000,#000000);" parent="403" vertex="1">
                    <mxGeometry width="120" height="40" as="geometry">
                        <mxRectangle width="120" height="40" as="alternateBounds"/>
                    </mxGeometry>
                </mxCell>
                <mxCell id="405" value="INT" style="shape=partialRectangle;html=1;whiteSpace=wrap;connectable=0;strokeColor=inherit;overflow=hidden;fillColor=none;top=0;left=0;bottom=0;right=0;pointerEvents=1;fontSize=16;fontFamily=Calibri;fontColor=light-dark(#000000,#000000);fontStyle=2;align=left;" parent="403" vertex="1">
                    <mxGeometry x="120" width="200" height="40" as="geometry">
                        <mxRectangle width="200" height="40" as="alternateBounds"/>
                    </mxGeometry>
                </mxCell>
                <mxCell id="406" value="From 1 to 5" style="shape=partialRectangle;whiteSpace=wrap;connectable=0;strokeColor=inherit;overflow=hidden;fillColor=none;top=0;left=0;bottom=0;right=0;pointerEvents=1;fontSize=16;fontFamily=Calibri;fontColor=light-dark(#000000,#006600);align=left;" parent="403" vertex="1">
                    <mxGeometry x="320" width="200" height="40" as="geometry">
                        <mxRectangle width="200" height="40" as="alternateBounds"/>
                    </mxGeometry>
                </mxCell>
                <mxCell id="378" style="shape=tableRow;horizontal=0;startSize=0;swimlaneHead=0;swimlaneBody=0;strokeColor=inherit;top=0;left=0;bottom=0;right=0;collapsible=0;dropTarget=0;fillColor=none;points=[[0,0.5],[1,0.5]];portConstraint=eastwest;fontSize=16;fontFamily=Calibri;fontColor=light-dark(#000000,#000000);" parent="266" vertex="1">
                    <mxGeometry y="280" width="520" height="40" as="geometry"/>
                </mxCell>
                <mxCell id="379" value="Date" style="shape=partialRectangle;html=1;whiteSpace=wrap;connectable=0;strokeColor=inherit;overflow=hidden;fillColor=none;top=0;left=0;bottom=0;right=0;pointerEvents=1;fontSize=16;fontFamily=Calibri;fontColor=light-dark(#000000,#000000);" parent="378" vertex="1">
                    <mxGeometry width="120" height="40" as="geometry">
                        <mxRectangle width="120" height="40" as="alternateBounds"/>
                    </mxGeometry>
                </mxCell>
                <mxCell id="380" value="TIMESTAMP" style="shape=partialRectangle;html=1;whiteSpace=wrap;connectable=0;strokeColor=inherit;overflow=hidden;fillColor=none;top=0;left=0;bottom=0;right=0;pointerEvents=1;fontSize=16;fontFamily=Calibri;fontColor=light-dark(#000000,#000000);fontStyle=2;align=left;" parent="378" vertex="1">
                    <mxGeometry x="120" width="200" height="40" as="geometry">
                        <mxRectangle width="200" height="40" as="alternateBounds"/>
                    </mxGeometry>
                </mxCell>
                <mxCell id="381" value="&#39;2025-06-20 10:30:00&#39;" style="shape=partialRectangle;whiteSpace=wrap;connectable=0;strokeColor=inherit;overflow=hidden;fillColor=none;top=0;left=0;bottom=0;right=0;pointerEvents=1;fontSize=16;fontFamily=Calibri;fontColor=light-dark(#000000,#006600);align=left;" parent="378" vertex="1">
                    <mxGeometry x="320" width="200" height="40" as="geometry">
                        <mxRectangle width="200" height="40" as="alternateBounds"/>
                    </mxGeometry>
                </mxCell>
                <mxCell id="407" style="shape=tableRow;horizontal=0;startSize=0;swimlaneHead=0;swimlaneBody=0;strokeColor=inherit;top=0;left=0;bottom=0;right=0;collapsible=0;dropTarget=0;fillColor=none;points=[[0,0.5],[1,0.5]];portConstraint=eastwest;fontSize=16;fontFamily=Calibri;fontColor=light-dark(#000000,#000000);" parent="266" vertex="1">
                    <mxGeometry y="320" width="520" height="80" as="geometry"/>
                </mxCell>
                <mxCell id="408" value="Date_published" style="shape=partialRectangle;html=1;whiteSpace=wrap;connectable=0;strokeColor=inherit;overflow=hidden;fillColor=none;top=0;left=0;bottom=0;right=0;pointerEvents=1;fontSize=16;fontFamily=Calibri;fontColor=light-dark(#000000,#000000);" parent="407" vertex="1">
                    <mxGeometry width="120" height="80" as="geometry">
                        <mxRectangle width="120" height="80" as="alternateBounds"/>
                    </mxGeometry>
                </mxCell>
                <mxCell id="409" value="TIMESTAMP" style="shape=partialRectangle;html=1;whiteSpace=wrap;connectable=0;strokeColor=inherit;overflow=hidden;fillColor=none;top=0;left=0;bottom=0;right=0;pointerEvents=1;fontSize=16;fontFamily=Calibri;fontColor=light-dark(#000000,#000000);fontStyle=2;align=left;" parent="407" vertex="1">
                    <mxGeometry x="120" width="200" height="80" as="geometry">
                        <mxRectangle width="200" height="80" as="alternateBounds"/>
                    </mxGeometry>
                </mxCell>
                <mxCell id="410" value="&gt; For server.js:&#xa;const dateEnrolled = &#xa;new Date().toISOString();" style="shape=partialRectangle;whiteSpace=wrap;connectable=0;strokeColor=inherit;overflow=hidden;fillColor=none;top=0;left=0;bottom=0;right=0;pointerEvents=1;fontSize=16;fontFamily=Calibri;fontColor=light-dark(#000000,#006600);align=left;" parent="407" vertex="1">
                    <mxGeometry x="320" width="200" height="80" as="geometry">
                        <mxRectangle width="200" height="80" as="alternateBounds"/>
                    </mxGeometry>
                </mxCell>
                <mxCell id="292" style="edgeStyle=orthogonalEdgeStyle;html=1;exitX=1;exitY=0.5;exitDx=0;exitDy=0;entryX=0;entryY=0.5;entryDx=0;entryDy=0;strokeColor=light-dark(#000000,#0038FF);strokeWidth=5;startArrow=ERmandOne;startFill=0;endArrow=ERzeroToMany;endFill=0;endSize=12;startSize=12;jumpStyle=arc;" parent="1" source="241" target="275" edge="1">
                    <mxGeometry relative="1" as="geometry">
                        <mxPoint x="60" y="1060" as="sourcePoint"/>
                        <mxPoint x="180" y="1100" as="targetPoint"/>
                        <Array as="points">
                            <mxPoint x="400" y="740"/>
                            <mxPoint x="400" y="820"/>
                        </Array>
                    </mxGeometry>
                </mxCell>
                <mxCell id="293" value="TASK" style="shape=table;startSize=40;container=1;collapsible=0;childLayout=tableLayout;strokeColor=none;fontSize=25;rounded=1;fillColor=light-dark(#FFFFFF,#F6C843);gradientColor=none;swimlaneFillColor=light-dark(#000000,#F6E0A8);fontColor=light-dark(#000000,#000000);fontFamily=Calibri;fontStyle=1" parent="1" vertex="1">
                    <mxGeometry x="1160" y="680" width="360" height="240" as="geometry"/>
                </mxCell>
                <mxCell id="294" value="" style="shape=tableRow;horizontal=0;startSize=0;swimlaneHead=0;swimlaneBody=0;strokeColor=inherit;top=0;left=0;bottom=0;right=0;collapsible=0;dropTarget=0;fillColor=none;points=[[0,0.5],[1,0.5]];portConstraint=eastwest;fontSize=16;fontFamily=Calibri;fontColor=light-dark(#000000,#000000);fontStyle=1" parent="293" vertex="1">
                    <mxGeometry y="40" width="360" height="40" as="geometry"/>
                </mxCell>
                <mxCell id="295" value="ID" style="shape=partialRectangle;html=1;whiteSpace=wrap;connectable=0;strokeColor=inherit;overflow=hidden;fillColor=none;top=0;left=0;bottom=0;right=0;pointerEvents=1;fontSize=16;fontFamily=Calibri;fontColor=light-dark(#000000,#000000);fontStyle=1" parent="294" vertex="1">
                    <mxGeometry width="120" height="40" as="geometry">
                        <mxRectangle width="120" height="40" as="alternateBounds"/>
                    </mxGeometry>
                </mxCell>
                <mxCell id="296" value="SERIAL" style="shape=partialRectangle;html=1;whiteSpace=wrap;connectable=0;strokeColor=inherit;overflow=hidden;fillColor=none;top=0;left=0;bottom=0;right=0;pointerEvents=1;fontSize=16;fontFamily=Calibri;fontColor=light-dark(#000000,#000000);fontStyle=3;align=left;" parent="294" vertex="1">
                    <mxGeometry x="120" width="80" height="40" as="geometry">
                        <mxRectangle width="80" height="40" as="alternateBounds"/>
                    </mxGeometry>
                </mxCell>
                <mxCell id="297" value="PK" style="shape=partialRectangle;html=1;whiteSpace=wrap;connectable=0;strokeColor=inherit;overflow=hidden;fillColor=none;top=0;left=0;bottom=0;right=0;pointerEvents=1;fontSize=16;fontFamily=Calibri;fontColor=light-dark(#000000,#006600);fontStyle=1;align=left;" parent="294" vertex="1">
                    <mxGeometry x="200" width="160" height="40" as="geometry">
                        <mxRectangle width="160" height="40" as="alternateBounds"/>
                    </mxGeometry>
                </mxCell>
                <mxCell id="298" value="" style="shape=tableRow;horizontal=0;startSize=0;swimlaneHead=0;swimlaneBody=0;strokeColor=inherit;top=0;left=0;bottom=0;right=0;collapsible=0;dropTarget=0;fillColor=none;points=[[0,0.5],[1,0.5]];portConstraint=eastwest;fontSize=16;fontFamily=Calibri;fontColor=light-dark(#000000,#000000);" parent="293" vertex="1">
                    <mxGeometry y="80" width="360" height="40" as="geometry"/>
                </mxCell>
                <mxCell id="299" value="Event_ID" style="shape=partialRectangle;html=1;whiteSpace=wrap;connectable=0;strokeColor=inherit;overflow=hidden;fillColor=none;top=0;left=0;bottom=0;right=0;pointerEvents=1;fontSize=16;fontFamily=Calibri;fontColor=light-dark(#000000,#000000);" parent="298" vertex="1">
                    <mxGeometry width="120" height="40" as="geometry">
                        <mxRectangle width="120" height="40" as="alternateBounds"/>
                    </mxGeometry>
                </mxCell>
                <mxCell id="300" value="INT" style="shape=partialRectangle;html=1;whiteSpace=wrap;connectable=0;strokeColor=inherit;overflow=hidden;fillColor=none;top=0;left=0;bottom=0;right=0;pointerEvents=1;fontSize=16;fontFamily=Calibri;fontColor=light-dark(#000000,#000000);fontStyle=2;align=left;" parent="298" vertex="1">
                    <mxGeometry x="120" width="80" height="40" as="geometry">
                        <mxRectangle width="80" height="40" as="alternateBounds"/>
                    </mxGeometry>
                </mxCell>
                <mxCell id="301" value="FK: EVENT.ID" style="shape=partialRectangle;whiteSpace=wrap;connectable=0;strokeColor=inherit;overflow=hidden;fillColor=none;top=0;left=0;bottom=0;right=0;pointerEvents=1;fontSize=16;fontFamily=Calibri;fontColor=light-dark(#000000,#006600);align=left;" parent="298" vertex="1">
                    <mxGeometry x="200" width="160" height="40" as="geometry">
                        <mxRectangle width="160" height="40" as="alternateBounds"/>
                    </mxGeometry>
                </mxCell>
                <mxCell id="411" style="shape=tableRow;horizontal=0;startSize=0;swimlaneHead=0;swimlaneBody=0;strokeColor=inherit;top=0;left=0;bottom=0;right=0;collapsible=0;dropTarget=0;fillColor=none;points=[[0,0.5],[1,0.5]];portConstraint=eastwest;fontSize=16;fontFamily=Calibri;fontColor=light-dark(#000000,#000000);" parent="293" vertex="1">
                    <mxGeometry y="120" width="360" height="40" as="geometry"/>
                </mxCell>
                <mxCell id="412" value="Name" style="shape=partialRectangle;html=1;whiteSpace=wrap;connectable=0;strokeColor=inherit;overflow=hidden;fillColor=none;top=0;left=0;bottom=0;right=0;pointerEvents=1;fontSize=16;fontFamily=Calibri;fontColor=light-dark(#000000,#000000);" parent="411" vertex="1">
                    <mxGeometry width="120" height="40" as="geometry">
                        <mxRectangle width="120" height="40" as="alternateBounds"/>
                    </mxGeometry>
                </mxCell>
                <mxCell id="413" value="TEXT" style="shape=partialRectangle;html=1;whiteSpace=wrap;connectable=0;strokeColor=inherit;overflow=hidden;fillColor=none;top=0;left=0;bottom=0;right=0;pointerEvents=1;fontSize=16;fontFamily=Calibri;fontColor=light-dark(#000000,#000000);fontStyle=2;align=left;" parent="411" vertex="1">
                    <mxGeometry x="120" width="80" height="40" as="geometry">
                        <mxRectangle width="80" height="40" as="alternateBounds"/>
                    </mxGeometry>
                </mxCell>
                <mxCell id="414" style="shape=partialRectangle;whiteSpace=wrap;connectable=0;strokeColor=inherit;overflow=hidden;fillColor=none;top=0;left=0;bottom=0;right=0;pointerEvents=1;fontSize=16;fontFamily=Calibri;fontColor=light-dark(#000000,#006600);align=left;" parent="411" vertex="1">
                    <mxGeometry x="200" width="160" height="40" as="geometry">
                        <mxRectangle width="160" height="40" as="alternateBounds"/>
                    </mxGeometry>
                </mxCell>
                <mxCell id="318" style="shape=tableRow;horizontal=0;startSize=0;swimlaneHead=0;swimlaneBody=0;strokeColor=inherit;top=0;left=0;bottom=0;right=0;collapsible=0;dropTarget=0;fillColor=none;points=[[0,0.5],[1,0.5]];portConstraint=eastwest;fontSize=16;fontFamily=Calibri;fontColor=light-dark(#000000,#000000);" parent="293" vertex="1">
                    <mxGeometry y="160" width="360" height="40" as="geometry"/>
                </mxCell>
                <mxCell id="319" value="Skill" style="shape=partialRectangle;html=1;whiteSpace=wrap;connectable=0;strokeColor=inherit;overflow=hidden;fillColor=none;top=0;left=0;bottom=0;right=0;pointerEvents=1;fontSize=16;fontFamily=Calibri;fontColor=light-dark(#000000,#000000);" parent="318" vertex="1">
                    <mxGeometry width="120" height="40" as="geometry">
                        <mxRectangle width="120" height="40" as="alternateBounds"/>
                    </mxGeometry>
                </mxCell>
                <mxCell id="320" value="TEXT[]" style="shape=partialRectangle;html=1;whiteSpace=wrap;connectable=0;strokeColor=inherit;overflow=hidden;fillColor=none;top=0;left=0;bottom=0;right=0;pointerEvents=1;fontSize=16;fontFamily=Calibri;fontColor=light-dark(#000000,#000000);fontStyle=2;align=left;" parent="318" vertex="1">
                    <mxGeometry x="120" width="80" height="40" as="geometry">
                        <mxRectangle width="80" height="40" as="alternateBounds"/>
                    </mxGeometry>
                </mxCell>
                <mxCell id="321" value="[&#39;Communication&#39;,&#39;Time management&#39;, ... ]" style="shape=partialRectangle;whiteSpace=wrap;connectable=0;strokeColor=inherit;overflow=hidden;fillColor=none;top=0;left=0;bottom=0;right=0;pointerEvents=1;fontSize=16;fontFamily=Calibri;fontColor=light-dark(#000000,#006600);align=left;" parent="318" vertex="1">
                    <mxGeometry x="200" width="160" height="40" as="geometry">
                        <mxRectangle width="160" height="40" as="alternateBounds"/>
                    </mxGeometry>
                </mxCell>
                <mxCell id="310" style="shape=tableRow;horizontal=0;startSize=0;swimlaneHead=0;swimlaneBody=0;strokeColor=inherit;top=0;left=0;bottom=0;right=0;collapsible=0;dropTarget=0;fillColor=none;points=[[0,0.5],[1,0.5]];portConstraint=eastwest;fontSize=16;fontFamily=Calibri;fontColor=light-dark(#000000,#000000);" parent="293" vertex="1">
                    <mxGeometry y="200" width="360" height="40" as="geometry"/>
                </mxCell>
                <mxCell id="311" value="Description" style="shape=partialRectangle;html=1;whiteSpace=wrap;connectable=0;strokeColor=inherit;overflow=hidden;fillColor=none;top=0;left=0;bottom=0;right=0;pointerEvents=1;fontSize=16;fontFamily=Calibri;fontColor=light-dark(#000000,#000000);" parent="310" vertex="1">
                    <mxGeometry width="120" height="40" as="geometry">
                        <mxRectangle width="120" height="40" as="alternateBounds"/>
                    </mxGeometry>
                </mxCell>
                <mxCell id="312" value="TEXT" style="shape=partialRectangle;html=1;whiteSpace=wrap;connectable=0;strokeColor=inherit;overflow=hidden;fillColor=none;top=0;left=0;bottom=0;right=0;pointerEvents=1;fontSize=16;fontFamily=Calibri;fontColor=light-dark(#000000,#000000);fontStyle=2;align=left;" parent="310" vertex="1">
                    <mxGeometry x="120" width="80" height="40" as="geometry">
                        <mxRectangle width="80" height="40" as="alternateBounds"/>
                    </mxGeometry>
                </mxCell>
                <mxCell id="313" value="&#39;...&#39;" style="shape=partialRectangle;whiteSpace=wrap;connectable=0;strokeColor=inherit;overflow=hidden;fillColor=none;top=0;left=0;bottom=0;right=0;pointerEvents=1;fontSize=16;fontFamily=Calibri;fontColor=light-dark(#000000,#006600);align=left;" parent="310" vertex="1">
                    <mxGeometry x="200" width="160" height="40" as="geometry">
                        <mxRectangle width="160" height="40" as="alternateBounds"/>
                    </mxGeometry>
                </mxCell>
                <mxCell id="326" style="edgeStyle=orthogonalEdgeStyle;html=1;exitX=1;exitY=0.5;exitDx=0;exitDy=0;entryX=0;entryY=0.5;entryDx=0;entryDy=0;strokeColor=light-dark(#000000,#FF0000);strokeWidth=5;startArrow=ERmandOne;startFill=0;endArrow=ERzeroToMany;endFill=0;endSize=12;startSize=12;jumpStyle=arc;" parent="1" source="267" target="298" edge="1">
                    <mxGeometry relative="1" as="geometry">
                        <mxPoint x="970" y="990" as="sourcePoint"/>
                        <mxPoint x="1090" y="1070" as="targetPoint"/>
                    </mxGeometry>
                </mxCell>
                <mxCell id="327" value="VOLUNTEER_TASK" style="shape=table;startSize=40;container=1;collapsible=0;childLayout=tableLayout;strokeColor=none;fontSize=25;rounded=1;fillColor=light-dark(#FFFFFF,#6FA630);gradientColor=none;swimlaneFillColor=light-dark(#000000,#C9FC98);fontColor=light-dark(#000000,#000000);fontFamily=Calibri;fontStyle=1" parent="1" vertex="1">
                    <mxGeometry x="520" y="1200" width="400" height="200" as="geometry"/>
                </mxCell>
                <mxCell id="328" value="" style="shape=tableRow;horizontal=0;startSize=0;swimlaneHead=0;swimlaneBody=0;strokeColor=inherit;top=0;left=0;bottom=0;right=0;collapsible=0;dropTarget=0;fillColor=none;points=[[0,0.5],[1,0.5]];portConstraint=eastwest;fontSize=16;fontFamily=Calibri;fontColor=light-dark(#000000,#000000);fontStyle=1" parent="327" vertex="1">
                    <mxGeometry y="40" width="400" height="40" as="geometry"/>
                </mxCell>
                <mxCell id="329" value="ID" style="shape=partialRectangle;html=1;whiteSpace=wrap;connectable=0;strokeColor=inherit;overflow=hidden;fillColor=none;top=0;left=0;bottom=0;right=0;pointerEvents=1;fontSize=16;fontFamily=Calibri;fontColor=light-dark(#000000,#000000);fontStyle=1" parent="328" vertex="1">
                    <mxGeometry width="120" height="40" as="geometry">
                        <mxRectangle width="120" height="40" as="alternateBounds"/>
                    </mxGeometry>
                </mxCell>
                <mxCell id="330" value="SERIAL" style="shape=partialRectangle;html=1;whiteSpace=wrap;connectable=0;strokeColor=inherit;overflow=hidden;fillColor=none;top=0;left=0;bottom=0;right=0;pointerEvents=1;fontSize=16;fontFamily=Calibri;fontColor=light-dark(#000000,#000000);fontStyle=3;align=left;" parent="328" vertex="1">
                    <mxGeometry x="120" width="120" height="40" as="geometry">
                        <mxRectangle width="120" height="40" as="alternateBounds"/>
                    </mxGeometry>
                </mxCell>
                <mxCell id="331" value="PK" style="shape=partialRectangle;html=1;whiteSpace=wrap;connectable=0;strokeColor=inherit;overflow=hidden;fillColor=none;top=0;left=0;bottom=0;right=0;pointerEvents=1;fontSize=16;fontFamily=Calibri;fontColor=light-dark(#000000,#006600);fontStyle=1;align=left;" parent="328" vertex="1">
                    <mxGeometry x="240" width="160" height="40" as="geometry">
                        <mxRectangle width="160" height="40" as="alternateBounds"/>
                    </mxGeometry>
                </mxCell>
                <mxCell id="336" style="shape=tableRow;horizontal=0;startSize=0;swimlaneHead=0;swimlaneBody=0;strokeColor=inherit;top=0;left=0;bottom=0;right=0;collapsible=0;dropTarget=0;fillColor=none;points=[[0,0.5],[1,0.5]];portConstraint=eastwest;fontSize=16;fontFamily=Calibri;fontColor=light-dark(#000000,#000000);" parent="327" vertex="1">
                    <mxGeometry y="80" width="400" height="40" as="geometry"/>
                </mxCell>
                <mxCell id="337" value="Task_ID" style="shape=partialRectangle;html=1;whiteSpace=wrap;connectable=0;strokeColor=inherit;overflow=hidden;fillColor=none;top=0;left=0;bottom=0;right=0;pointerEvents=1;fontSize=16;fontFamily=Calibri;fontColor=light-dark(#000000,#000000);" parent="336" vertex="1">
                    <mxGeometry width="120" height="40" as="geometry">
                        <mxRectangle width="120" height="40" as="alternateBounds"/>
                    </mxGeometry>
                </mxCell>
                <mxCell id="338" value="INT" style="shape=partialRectangle;html=1;whiteSpace=wrap;connectable=0;strokeColor=inherit;overflow=hidden;fillColor=none;top=0;left=0;bottom=0;right=0;pointerEvents=1;fontSize=16;fontFamily=Calibri;fontColor=light-dark(#000000,#000000);fontStyle=2;align=left;" parent="336" vertex="1">
                    <mxGeometry x="120" width="120" height="40" as="geometry">
                        <mxRectangle width="120" height="40" as="alternateBounds"/>
                    </mxGeometry>
                </mxCell>
                <mxCell id="339" value="FK: TASK.ID" style="shape=partialRectangle;whiteSpace=wrap;connectable=0;strokeColor=inherit;overflow=hidden;fillColor=none;top=0;left=0;bottom=0;right=0;pointerEvents=1;fontSize=16;fontFamily=Calibri;fontColor=light-dark(#000000,#006600);align=left;" parent="336" vertex="1">
                    <mxGeometry x="240" width="160" height="40" as="geometry">
                        <mxRectangle width="160" height="40" as="alternateBounds"/>
                    </mxGeometry>
                </mxCell>
                <mxCell id="332" value="" style="shape=tableRow;horizontal=0;startSize=0;swimlaneHead=0;swimlaneBody=0;strokeColor=inherit;top=0;left=0;bottom=0;right=0;collapsible=0;dropTarget=0;fillColor=none;points=[[0,0.5],[1,0.5]];portConstraint=eastwest;fontSize=16;fontFamily=Calibri;fontColor=light-dark(#000000,#000000);" parent="327" vertex="1">
                    <mxGeometry y="120" width="400" height="40" as="geometry"/>
                </mxCell>
                <mxCell id="333" value="Volunteer_ID" style="shape=partialRectangle;html=1;whiteSpace=wrap;connectable=0;strokeColor=inherit;overflow=hidden;fillColor=none;top=0;left=0;bottom=0;right=0;pointerEvents=1;fontSize=16;fontFamily=Calibri;fontColor=light-dark(#000000,#000000);" parent="332" vertex="1">
                    <mxGeometry width="120" height="40" as="geometry">
                        <mxRectangle width="120" height="40" as="alternateBounds"/>
                    </mxGeometry>
                </mxCell>
                <mxCell id="334" value="INT" style="shape=partialRectangle;html=1;whiteSpace=wrap;connectable=0;strokeColor=inherit;overflow=hidden;fillColor=none;top=0;left=0;bottom=0;right=0;pointerEvents=1;fontSize=16;fontFamily=Calibri;fontColor=light-dark(#000000,#000000);fontStyle=2;align=left;" parent="332" vertex="1">
                    <mxGeometry x="120" width="120" height="40" as="geometry">
                        <mxRectangle width="120" height="40" as="alternateBounds"/>
                    </mxGeometry>
                </mxCell>
                <mxCell id="335" value="FK:VOLUNTEER_.ID" style="shape=partialRectangle;whiteSpace=wrap;connectable=0;strokeColor=inherit;overflow=hidden;fillColor=none;top=0;left=0;bottom=0;right=0;pointerEvents=1;fontSize=16;fontFamily=Calibri;fontColor=light-dark(#000000,#006600);align=left;" parent="332" vertex="1">
                    <mxGeometry x="240" width="160" height="40" as="geometry">
                        <mxRectangle width="160" height="40" as="alternateBounds"/>
                    </mxGeometry>
                </mxCell>
                <mxCell id="367" style="shape=tableRow;horizontal=0;startSize=0;swimlaneHead=0;swimlaneBody=0;strokeColor=inherit;top=0;left=0;bottom=0;right=0;collapsible=0;dropTarget=0;fillColor=none;points=[[0,0.5],[1,0.5]];portConstraint=eastwest;fontSize=16;fontFamily=Calibri;fontColor=light-dark(#000000,#000000);" parent="327" vertex="1">
                    <mxGeometry y="160" width="400" height="40" as="geometry"/>
                </mxCell>
                <mxCell id="368" value="Date_accepted" style="shape=partialRectangle;html=1;whiteSpace=wrap;connectable=0;strokeColor=inherit;overflow=hidden;fillColor=none;top=0;left=0;bottom=0;right=0;pointerEvents=1;fontSize=16;fontFamily=Calibri;fontColor=light-dark(#000000,#000000);" parent="367" vertex="1">
                    <mxGeometry width="120" height="40" as="geometry">
                        <mxRectangle width="120" height="40" as="alternateBounds"/>
                    </mxGeometry>
                </mxCell>
                <mxCell id="369" value="TIMESTAMP" style="shape=partialRectangle;html=1;whiteSpace=wrap;connectable=0;strokeColor=inherit;overflow=hidden;fillColor=none;top=0;left=0;bottom=0;right=0;pointerEvents=1;fontSize=16;fontFamily=Calibri;fontColor=light-dark(#000000,#000000);fontStyle=2;align=left;" parent="367" vertex="1">
                    <mxGeometry x="120" width="120" height="40" as="geometry">
                        <mxRectangle width="120" height="40" as="alternateBounds"/>
                    </mxGeometry>
                </mxCell>
                <mxCell id="370" value="&#39;2025-06-20 12:00:00&#39;" style="shape=partialRectangle;whiteSpace=wrap;connectable=0;strokeColor=inherit;overflow=hidden;fillColor=none;top=0;left=0;bottom=0;right=0;pointerEvents=1;fontSize=16;fontFamily=Calibri;fontColor=light-dark(#000000,#006600);align=left;" parent="367" vertex="1">
                    <mxGeometry x="240" width="160" height="40" as="geometry">
                        <mxRectangle width="160" height="40" as="alternateBounds"/>
                    </mxGeometry>
                </mxCell>
                <mxCell id="344" style="edgeStyle=orthogonalEdgeStyle;html=1;exitX=1;exitY=0.5;exitDx=0;exitDy=0;entryX=0;entryY=0.5;entryDx=0;entryDy=0;strokeColor=light-dark(#000000,#F6C843);strokeWidth=5;startArrow=ERmandOne;startFill=0;endArrow=ERzeroToMany;endFill=0;endSize=12;startSize=12;jumpStyle=arc;" parent="1" source="294" target="336" edge="1">
                    <mxGeometry relative="1" as="geometry">
                        <mxPoint x="1650" y="920" as="sourcePoint"/>
                        <mxPoint x="1770" y="960" as="targetPoint"/>
                        <Array as="points">
                            <mxPoint x="1600" y="740"/>
                            <mxPoint x="1600" y="1160"/>
                            <mxPoint x="440" y="1160"/>
                            <mxPoint x="440" y="1300"/>
                        </Array>
                    </mxGeometry>
                </mxCell>
                <mxCell id="345" style="edgeStyle=orthogonalEdgeStyle;html=1;exitX=1;exitY=0.5;exitDx=0;exitDy=0;entryX=0;entryY=0.5;entryDx=0;entryDy=0;strokeColor=light-dark(#000000,#0038FF);strokeWidth=5;startArrow=ERmandOne;startFill=0;endArrow=ERzeroToMany;endFill=0;endSize=12;startSize=12;jumpStyle=arc;" parent="1" source="241" target="332" edge="1">
                    <mxGeometry relative="1" as="geometry">
                        <mxPoint x="440" y="990" as="sourcePoint"/>
                        <mxPoint x="560" y="1070" as="targetPoint"/>
                        <Array as="points">
                            <mxPoint x="400" y="740"/>
                            <mxPoint x="400" y="1340"/>
                        </Array>
                    </mxGeometry>
                </mxCell>
                <mxCell id="346" value="VOLUNTEER_HIST" style="shape=table;startSize=40;container=1;collapsible=0;childLayout=tableLayout;strokeColor=none;fontSize=25;rounded=1;fillColor=light-dark(#FFFFFF,#8619F5);gradientColor=none;swimlaneFillColor=light-dark(#000000,#B885F5);fontColor=light-dark(#000000,#000000);fontFamily=Calibri;fontStyle=1" parent="1" vertex="1">
                    <mxGeometry x="1040" y="1200" width="400" height="200" as="geometry"/>
                </mxCell>
                <mxCell id="347" value="" style="shape=tableRow;horizontal=0;startSize=0;swimlaneHead=0;swimlaneBody=0;strokeColor=inherit;top=0;left=0;bottom=0;right=0;collapsible=0;dropTarget=0;fillColor=none;points=[[0,0.5],[1,0.5]];portConstraint=eastwest;fontSize=16;fontFamily=Calibri;fontColor=light-dark(#000000,#000000);fontStyle=1" parent="346" vertex="1">
                    <mxGeometry y="40" width="400" height="40" as="geometry"/>
                </mxCell>
                <mxCell id="348" value="ID" style="shape=partialRectangle;html=1;whiteSpace=wrap;connectable=0;strokeColor=inherit;overflow=hidden;fillColor=none;top=0;left=0;bottom=0;right=0;pointerEvents=1;fontSize=16;fontFamily=Calibri;fontColor=light-dark(#000000,#000000);fontStyle=1" parent="347" vertex="1">
                    <mxGeometry width="120" height="40" as="geometry">
                        <mxRectangle width="120" height="40" as="alternateBounds"/>
                    </mxGeometry>
                </mxCell>
                <mxCell id="349" value="SERIAL" style="shape=partialRectangle;html=1;whiteSpace=wrap;connectable=0;strokeColor=inherit;overflow=hidden;fillColor=none;top=0;left=0;bottom=0;right=0;pointerEvents=1;fontSize=16;fontFamily=Calibri;fontColor=light-dark(#000000,#000000);fontStyle=3;align=left;" parent="347" vertex="1">
                    <mxGeometry x="120" width="120" height="40" as="geometry">
                        <mxRectangle width="120" height="40" as="alternateBounds"/>
                    </mxGeometry>
                </mxCell>
                <mxCell id="350" value="PK" style="shape=partialRectangle;html=1;whiteSpace=wrap;connectable=0;strokeColor=inherit;overflow=hidden;fillColor=none;top=0;left=0;bottom=0;right=0;pointerEvents=1;fontSize=16;fontFamily=Calibri;fontColor=light-dark(#000000,#006600);fontStyle=1;align=left;" parent="347" vertex="1">
                    <mxGeometry x="240" width="160" height="40" as="geometry">
                        <mxRectangle width="160" height="40" as="alternateBounds"/>
                    </mxGeometry>
                </mxCell>
                <mxCell id="351" style="shape=tableRow;horizontal=0;startSize=0;swimlaneHead=0;swimlaneBody=0;strokeColor=inherit;top=0;left=0;bottom=0;right=0;collapsible=0;dropTarget=0;fillColor=none;points=[[0,0.5],[1,0.5]];portConstraint=eastwest;fontSize=16;fontFamily=Calibri;fontColor=light-dark(#000000,#000000);" parent="346" vertex="1">
                    <mxGeometry y="80" width="400" height="40" as="geometry"/>
                </mxCell>
                <mxCell id="352" value="V_Task_ID" style="shape=partialRectangle;html=1;whiteSpace=wrap;connectable=0;strokeColor=inherit;overflow=hidden;fillColor=none;top=0;left=0;bottom=0;right=0;pointerEvents=1;fontSize=16;fontFamily=Calibri;fontColor=light-dark(#000000,#000000);" parent="351" vertex="1">
                    <mxGeometry width="120" height="40" as="geometry">
                        <mxRectangle width="120" height="40" as="alternateBounds"/>
                    </mxGeometry>
                </mxCell>
                <mxCell id="353" value="INT" style="shape=partialRectangle;html=1;whiteSpace=wrap;connectable=0;strokeColor=inherit;overflow=hidden;fillColor=none;top=0;left=0;bottom=0;right=0;pointerEvents=1;fontSize=16;fontFamily=Calibri;fontColor=light-dark(#000000,#000000);fontStyle=2;align=left;" parent="351" vertex="1">
                    <mxGeometry x="120" width="120" height="40" as="geometry">
                        <mxRectangle width="120" height="40" as="alternateBounds"/>
                    </mxGeometry>
                </mxCell>
                <mxCell id="354" value="FK: VOLUNTEER_TASK.ID" style="shape=partialRectangle;whiteSpace=wrap;connectable=0;strokeColor=inherit;overflow=hidden;fillColor=none;top=0;left=0;bottom=0;right=0;pointerEvents=1;fontSize=16;fontFamily=Calibri;fontColor=light-dark(#000000,#006600);align=left;" parent="351" vertex="1">
                    <mxGeometry x="240" width="160" height="40" as="geometry">
                        <mxRectangle width="160" height="40" as="alternateBounds"/>
                    </mxGeometry>
                </mxCell>
                <mxCell id="355" value="" style="shape=tableRow;horizontal=0;startSize=0;swimlaneHead=0;swimlaneBody=0;strokeColor=inherit;top=0;left=0;bottom=0;right=0;collapsible=0;dropTarget=0;fillColor=none;points=[[0,0.5],[1,0.5]];portConstraint=eastwest;fontSize=16;fontFamily=Calibri;fontColor=light-dark(#000000,#000000);" parent="346" vertex="1">
                    <mxGeometry y="120" width="400" height="40" as="geometry"/>
                </mxCell>
                <mxCell id="356" value="Start_Time" style="shape=partialRectangle;html=1;whiteSpace=wrap;connectable=0;strokeColor=inherit;overflow=hidden;fillColor=none;top=0;left=0;bottom=0;right=0;pointerEvents=1;fontSize=16;fontFamily=Calibri;fontColor=light-dark(#000000,#000000);" parent="355" vertex="1">
                    <mxGeometry width="120" height="40" as="geometry">
                        <mxRectangle width="120" height="40" as="alternateBounds"/>
                    </mxGeometry>
                </mxCell>
                <mxCell id="357" value="TIMESTAMP" style="shape=partialRectangle;html=1;whiteSpace=wrap;connectable=0;strokeColor=inherit;overflow=hidden;fillColor=none;top=0;left=0;bottom=0;right=0;pointerEvents=1;fontSize=16;fontFamily=Calibri;fontColor=light-dark(#000000,#000000);fontStyle=2;align=left;" parent="355" vertex="1">
                    <mxGeometry x="120" width="120" height="40" as="geometry">
                        <mxRectangle width="120" height="40" as="alternateBounds"/>
                    </mxGeometry>
                </mxCell>
                <mxCell id="358" value="&#39;2025-06-20 12:00:00&#39;" style="shape=partialRectangle;whiteSpace=wrap;connectable=0;strokeColor=inherit;overflow=hidden;fillColor=none;top=0;left=0;bottom=0;right=0;pointerEvents=1;fontSize=16;fontFamily=Calibri;fontColor=light-dark(#000000,#006600);align=left;" parent="355" vertex="1">
                    <mxGeometry x="240" width="160" height="40" as="geometry">
                        <mxRectangle width="160" height="40" as="alternateBounds"/>
                    </mxGeometry>
                </mxCell>
                <mxCell id="371" style="shape=tableRow;horizontal=0;startSize=0;swimlaneHead=0;swimlaneBody=0;strokeColor=inherit;top=0;left=0;bottom=0;right=0;collapsible=0;dropTarget=0;fillColor=none;points=[[0,0.5],[1,0.5]];portConstraint=eastwest;fontSize=16;fontFamily=Calibri;fontColor=light-dark(#000000,#000000);" parent="346" vertex="1">
                    <mxGeometry y="160" width="400" height="40" as="geometry"/>
                </mxCell>
                <mxCell id="372" value="End_Time" style="shape=partialRectangle;html=1;whiteSpace=wrap;connectable=0;strokeColor=inherit;overflow=hidden;fillColor=none;top=0;left=0;bottom=0;right=0;pointerEvents=1;fontSize=16;fontFamily=Calibri;fontColor=light-dark(#000000,#000000);" parent="371" vertex="1">
                    <mxGeometry width="120" height="40" as="geometry">
                        <mxRectangle width="120" height="40" as="alternateBounds"/>
                    </mxGeometry>
                </mxCell>
                <mxCell id="373" value="TIMESTAMP" style="shape=partialRectangle;whiteSpace=wrap;connectable=0;strokeColor=inherit;overflow=hidden;fillColor=none;top=0;left=0;bottom=0;right=0;pointerEvents=1;fontSize=16;fontFamily=Calibri;fontColor=light-dark(#000000,#000000);fontStyle=2;align=left;" parent="371" vertex="1">
                    <mxGeometry x="120" width="120" height="40" as="geometry">
                        <mxRectangle width="120" height="40" as="alternateBounds"/>
                    </mxGeometry>
                </mxCell>
                <mxCell id="374" value="&#39;2025-06-20 05:00:00&#39;" style="shape=partialRectangle;whiteSpace=wrap;connectable=0;strokeColor=inherit;overflow=hidden;fillColor=none;top=0;left=0;bottom=0;right=0;pointerEvents=1;fontSize=16;fontFamily=Calibri;fontColor=light-dark(#000000,#006600);align=left;" parent="371" vertex="1">
                    <mxGeometry x="240" width="160" height="40" as="geometry">
                        <mxRectangle width="160" height="40" as="alternateBounds"/>
                    </mxGeometry>
                </mxCell>
                <mxCell id="375" style="edgeStyle=orthogonalEdgeStyle;html=1;exitX=1;exitY=0.5;exitDx=0;exitDy=0;entryX=0;entryY=0.5;entryDx=0;entryDy=0;strokeColor=light-dark(#000000,#6FA630);strokeWidth=5;startArrow=ERmandOne;startFill=0;endArrow=ERzeroToMany;endFill=0;endSize=12;startSize=12;jumpStyle=arc;" parent="1" source="328" target="351" edge="1">
                    <mxGeometry relative="1" as="geometry">
                        <mxPoint x="1820" y="1100" as="sourcePoint"/>
                        <mxPoint x="1940" y="1260" as="targetPoint"/>
                    </mxGeometry>
                </mxCell>
                <mxCell id="376" value="is assigned to " style="edgeStyle=orthogonalEdgeStyle;exitX=1;exitY=0.5;exitDx=0;exitDy=0;entryX=0;entryY=0.5;entryDx=0;entryDy=0;strokeColor=light-dark(#000000,#FFC600);strokeWidth=5;fontFamily=Calibri;fontColor=light-dark(#000000,#FFC600);labelBackgroundColor=none;fontSize=15;shadow=0;" parent="1" source="65" target="142" edge="1">
                    <mxGeometry x="0.5208" y="10" relative="1" as="geometry">
                        <mxPoint x="490" y="-100.34" as="sourcePoint"/>
                        <mxPoint x="650" y="-100.34" as="targetPoint"/>
                        <Array as="points">
                            <mxPoint x="580" y="140"/>
                            <mxPoint x="580" y="300"/>
                            <mxPoint x="60" y="300"/>
                            <mxPoint x="60" y="380"/>
                        </Array>
                        <mxPoint as="offset"/>
                    </mxGeometry>
                </mxCell>
                <mxCell id="377" value="generates" style="edgeStyle=elbowEdgeStyle;exitX=1;exitY=0.5;exitDx=0;exitDy=0;entryX=0;entryY=0.5;entryDx=0;entryDy=0;strokeColor=light-dark(#000000,#6FA630);strokeWidth=5;fontFamily=Calibri;fontColor=light-dark(#000000,#6FA630);labelBackgroundColor=none;fontSize=15;shadow=0;" parent="1" source="142" target="63" edge="1">
                    <mxGeometry y="-10" relative="1" as="geometry">
                        <mxPoint x="290" y="330" as="sourcePoint"/>
                        <mxPoint x="570" y="330" as="targetPoint"/>
                        <Array as="points">
                            <mxPoint x="360" y="380"/>
                            <mxPoint x="360" y="229.66"/>
                        </Array>
                        <mxPoint as="offset"/>
                    </mxGeometry>
                </mxCell>
                <mxCell id="394" value="&gt; For hashing passwords:&#xa;INSERT INTO VOLUNTEER (Email, Password) VALUES&#xa;    (&#39;sample@email.com&#39;, crypt(&#39;plaintext_password&#39;,gen_salt(&#39;bf&#39;)));&#xa;&#xa;&gt; For verifying:&#xa;SELECT * FROM VOLUNTEER&#xa;    WHERE &#xa;        Email = &#39;sample@email.com&#39; AND&#xa;        Password = crypt(&#39;input_password&#39;, Password)" style="text;align=left;verticalAlign=top;resizable=0;points=[];autosize=1;strokeColor=none;fillColor=none;fontColor=light-dark(#000000,#000000);shadow=0;" parent="1" vertex="1">
                    <mxGeometry x="-160" y="1600" width="380" height="140" as="geometry"/>
                </mxCell>
                <mxCell id="415" value="NOTIFICATION" style="shape=table;startSize=40;container=1;collapsible=0;childLayout=tableLayout;strokeColor=#6c8ebf;fontSize=25;rounded=1;fillColor=#dae8fc;swimlaneFillColor=light-dark(#000000, #8e9eb4);fontFamily=Calibri;fontStyle=1;" parent="1" vertex="1">
                    <mxGeometry x="1160" y="960" width="400" height="160" as="geometry"/>
                </mxCell>
                <mxCell id="416" value="" style="shape=tableRow;horizontal=0;startSize=0;swimlaneHead=0;swimlaneBody=0;strokeColor=inherit;top=0;left=0;bottom=0;right=0;collapsible=0;dropTarget=0;fillColor=none;points=[[0,0.5],[1,0.5]];portConstraint=eastwest;fontSize=16;fontFamily=Calibri;fontColor=light-dark(#000000,#000000);fontStyle=1" parent="415" vertex="1">
                    <mxGeometry y="40" width="400" height="40" as="geometry"/>
                </mxCell>
                <mxCell id="417" value="ID" style="shape=partialRectangle;html=1;whiteSpace=wrap;connectable=0;strokeColor=inherit;overflow=hidden;fillColor=none;top=0;left=0;bottom=0;right=0;pointerEvents=1;fontSize=16;fontFamily=Calibri;fontColor=light-dark(#000000,#000000);fontStyle=1" parent="416" vertex="1">
                    <mxGeometry width="120" height="40" as="geometry">
                        <mxRectangle width="120" height="40" as="alternateBounds"/>
                    </mxGeometry>
                </mxCell>
                <mxCell id="418" value="SERIAL" style="shape=partialRectangle;html=1;whiteSpace=wrap;connectable=0;strokeColor=inherit;overflow=hidden;fillColor=none;top=0;left=0;bottom=0;right=0;pointerEvents=1;fontSize=16;fontFamily=Calibri;fontColor=light-dark(#000000,#000000);fontStyle=3;align=left;" parent="416" vertex="1">
                    <mxGeometry x="120" width="120" height="40" as="geometry">
                        <mxRectangle width="120" height="40" as="alternateBounds"/>
                    </mxGeometry>
                </mxCell>
                <mxCell id="419" value="PK" style="shape=partialRectangle;html=1;whiteSpace=wrap;connectable=0;strokeColor=inherit;overflow=hidden;fillColor=none;top=0;left=0;bottom=0;right=0;pointerEvents=1;fontSize=16;fontFamily=Calibri;fontColor=light-dark(#000000,#006600);fontStyle=1;align=left;" parent="416" vertex="1">
                    <mxGeometry x="240" width="160" height="40" as="geometry">
                        <mxRectangle width="160" height="40" as="alternateBounds"/>
                    </mxGeometry>
                </mxCell>
                <mxCell id="420" style="shape=tableRow;horizontal=0;startSize=0;swimlaneHead=0;swimlaneBody=0;strokeColor=inherit;top=0;left=0;bottom=0;right=0;collapsible=0;dropTarget=0;fillColor=none;points=[[0,0.5],[1,0.5]];portConstraint=eastwest;fontSize=16;fontFamily=Calibri;fontColor=light-dark(#000000,#000000);" parent="415" vertex="1">
                    <mxGeometry y="80" width="400" height="40" as="geometry"/>
                </mxCell>
                <mxCell id="421" value="Event_ID" style="shape=partialRectangle;html=1;whiteSpace=wrap;connectable=0;strokeColor=inherit;overflow=hidden;fillColor=none;top=0;left=0;bottom=0;right=0;pointerEvents=1;fontSize=16;fontFamily=Calibri;fontColor=light-dark(#000000,#000000);" parent="420" vertex="1">
                    <mxGeometry width="120" height="40" as="geometry">
                        <mxRectangle width="120" height="40" as="alternateBounds"/>
                    </mxGeometry>
                </mxCell>
                <mxCell id="422" value="INT" style="shape=partialRectangle;html=1;whiteSpace=wrap;connectable=0;strokeColor=inherit;overflow=hidden;fillColor=none;top=0;left=0;bottom=0;right=0;pointerEvents=1;fontSize=16;fontFamily=Calibri;fontColor=light-dark(#000000,#000000);fontStyle=2;align=left;" parent="420" vertex="1">
                    <mxGeometry x="120" width="120" height="40" as="geometry">
                        <mxRectangle width="120" height="40" as="alternateBounds"/>
                    </mxGeometry>
                </mxCell>
                <mxCell id="423" value="FK: EVENT.ID" style="shape=partialRectangle;whiteSpace=wrap;connectable=0;strokeColor=inherit;overflow=hidden;fillColor=none;top=0;left=0;bottom=0;right=0;pointerEvents=1;fontSize=16;fontFamily=Calibri;fontColor=light-dark(#000000,#006600);align=left;" parent="420" vertex="1">
                    <mxGeometry x="240" width="160" height="40" as="geometry">
                        <mxRectangle width="160" height="40" as="alternateBounds"/>
                    </mxGeometry>
                </mxCell>
                <mxCell id="424" value="" style="shape=tableRow;horizontal=0;startSize=0;swimlaneHead=0;swimlaneBody=0;strokeColor=inherit;top=0;left=0;bottom=0;right=0;collapsible=0;dropTarget=0;fillColor=none;points=[[0,0.5],[1,0.5]];portConstraint=eastwest;fontSize=16;fontFamily=Calibri;fontColor=light-dark(#000000,#000000);" parent="415" vertex="1">
                    <mxGeometry y="120" width="400" height="40" as="geometry"/>
                </mxCell>
                <mxCell id="425" value="Message" style="shape=partialRectangle;html=1;whiteSpace=wrap;connectable=0;strokeColor=inherit;overflow=hidden;fillColor=none;top=0;left=0;bottom=0;right=0;pointerEvents=1;fontSize=16;fontFamily=Calibri;fontColor=light-dark(#000000,#000000);" parent="424" vertex="1">
                    <mxGeometry width="120" height="40" as="geometry">
                        <mxRectangle width="120" height="40" as="alternateBounds"/>
                    </mxGeometry>
                </mxCell>
                <mxCell id="426" value="TEXT" style="shape=partialRectangle;html=1;whiteSpace=wrap;connectable=0;strokeColor=inherit;overflow=hidden;fillColor=none;top=0;left=0;bottom=0;right=0;pointerEvents=1;fontSize=16;fontFamily=Calibri;fontColor=light-dark(#000000,#000000);fontStyle=2;align=left;" parent="424" vertex="1">
                    <mxGeometry x="120" width="120" height="40" as="geometry">
                        <mxRectangle width="120" height="40" as="alternateBounds"/>
                    </mxGeometry>
                </mxCell>
                <mxCell id="427" value="NOT NULL" style="shape=partialRectangle;whiteSpace=wrap;connectable=0;strokeColor=inherit;overflow=hidden;fillColor=none;top=0;left=0;bottom=0;right=0;pointerEvents=1;fontSize=16;fontFamily=Calibri;fontColor=light-dark(#000000,#006600);align=left;" parent="424" vertex="1">
                    <mxGeometry x="240" width="160" height="40" as="geometry">
                        <mxRectangle width="160" height="40" as="alternateBounds"/>
                    </mxGeometry>
                </mxCell>
                <mxCell id="432" style="edgeStyle=orthogonalEdgeStyle;html=1;exitX=1;exitY=0.5;exitDx=0;exitDy=0;entryX=0;entryY=0.5;entryDx=0;entryDy=0;strokeColor=light-dark(#000000,#FF0000);strokeWidth=5;startArrow=ERmandOne;startFill=0;endArrow=ERzeroToMany;endFill=0;endSize=12;startSize=12;jumpStyle=arc;" edge="1" parent="1" source="267" target="420">
                    <mxGeometry relative="1" as="geometry">
                        <mxPoint x="1090" y="690" as="sourcePoint"/>
                        <mxPoint x="1210" y="730" as="targetPoint"/>
                    </mxGeometry>
                </mxCell>
            </root>
        </mxGraphModel>
    </diagram>
</mxfile>